# M870 FPS art asset, meters, +Z forward
o MagazineCap
v -0.013 -0.01 0.486
v -0.012937401446738559 -0.008725777175715713 0.486
v -0.012750208645241994 -0.007463825813790333 0.486
v -0.012440224364518714 -0.00622629919569199 0.486
v -0.012010433922646727 -0.005025115379253833 0.486
v -0.011464976436528615 -0.003871842421262031 0.486
v -0.010809104959933088 -0.002777586970745172 0.486
v -0.01004913589371558 -0.00175288730587261 0.486
v -0.009192388155425118 -0.0008076118445748837 0.486
v -0.00824711269412739 0.00004913589371557947 0.486
v -0.007222413029254829 0.0008091049599330876 0.486
v -0.006128157578737971 0.0014649764365286134 0.486
v -0.004974884620746168 0.002010433922646727 0.486
v -0.00377370080430801 0.002440224364518715 0.486
v -0.0025361741862096683 0.002750208645241994 0.486
v -0.00127422282428429 0.0029374014467385585 0.486
v -7.960204194457796e-19 0.002999999999999999 0.486
v 0.0012742228242842884 0.0029374014467385585 0.486
v 0.0025361741862096666 0.002750208645241994 0.486
v 0.003773700804308008 0.002440224364518715 0.486
v 0.004974884620746166 0.002010433922646727 0.486
v 0.006128157578737969 0.0014649764365286151 0.486
v 0.007222413029254825 0.0008091049599330893 0.486
v 0.00824711269412739 0.000049135893715581205 0.486
v 0.009192388155425116 -0.000807611844574882 0.486
v 0.01004913589371558 -0.00175288730587261 0.486
v 0.01080910495993309 -0.002777586970745172 0.486
v 0.011464976436528614 -0.003871842421262028 0.486
v 0.012010433922646727 -0.005025115379253832 0.486
v 0.012440224364518714 -0.00622629919569199 0.486
v 0.012750208645241994 -0.007463825813790329 0.486
v 0.012937401446738559 -0.00872577717571571 0.486
v 0.013 -0.009999999999999998 0.486
v 0.012937401446738559 -0.011274222824284287 0.486
v 0.012750208645241994 -0.01253617418620967 0.486
v 0.012440224364518715 -0.013773700804308007 0.486
v 0.012010433922646729 -0.014974884620746165 0.486
v 0.011464976436528615 -0.01612815757873797 0.486
v 0.010809104959933091 -0.017222413029254827 0.486
v 0.010049135893715581 -0.01824711269412739 0.486
v 0.00919238815542512 -0.019192388155425115 0.486
v 0.008247112694127397 -0.020049135893715576 0.486
v 0.007222413029254828 -0.020809104959933086 0.486
v 0.006128157578737973 -0.021464976436528616 0.486
v 0.004974884620746174 -0.022010433922646726 0.486
v 0.0037737008043080117 -0.022440224364518715 0.486
v 0.0025361741862096727 -0.022750208645241993 0.486
v 0.0012742228242842858 -0.02293740144673856 0.486
v 2.3880612583373385e-18 -0.023 0.486
v -0.001274222824284281 -0.02293740144673856 0.486
v -0.002536174186209668 -0.022750208645241993 0.486
v -0.0037737008043080065 -0.022440224364518715 0.486
v -0.0049748846207461695 -0.022010433922646726 0.486
v -0.0061281575787379685 -0.021464976436528616 0.486
v -0.007222413029254824 -0.020809104959933093 0.486
v -0.008247112694127392 -0.02004913589371558 0.486
v -0.009192388155425115 -0.019192388155425122 0.486
v -0.010049135893715574 -0.018247112694127397 0.486
v -0.010809104959933088 -0.017222413029254827 0.486
v -0.011464976436528612 -0.01612815757873797 0.486
v -0.012010433922646724 -0.014974884620746174 0.486
v -0.012440224364518714 -0.013773700804308012 0.486
v -0.012750208645241994 -0.012536174186209673 0.486
v -0.012937401446738559 -0.011274222824284287 0.486
v -0.013 -0.010000000000000004 0.486
v -0.015 -0.01 0.488
v -0.014927770900082953 -0.008529742895056591 0.488
v -0.014711779206048456 -0.0070736451697580765 0.488
v -0.014354105035983132 -0.005645729841183065 0.488
v -0.0138581929876693 -0.0042597485145236536 0.488
v -0.013228818965225325 -0.0029290489476100356 0.488
v -0.012472044184538178 -0.0016664465047059682 0.488
v -0.011595156800441054 -0.0004841007375453177 0.488
v -0.010606601717798213 0.0006066017177982115 0.488
v -0.009515899262454683 0.0015951568004410523 0.488
v -0.008333553495294034 0.0024720441845381778 0.488
v -0.007070951052389967 0.003228818965225323 0.488
v -0.0057402514854763475 0.0038581929876693004 0.488
v -0.004354270158816935 0.004354105035983134 0.488
v -0.002926354830241925 0.004711779206048455 0.488
v -0.0014702571049434116 0.004927770900082952 0.488
v -9.184850993605148e-19 0.004999999999999999 0.488
v 0.0014702571049434096 0.004927770900082952 0.488
v 0.002926354830241923 0.004711779206048455 0.488
v 0.004354270158816932 0.004354105035983134 0.488
v 0.005740251485476346 0.0038581929876693004 0.488
v 0.007070951052389965 0.0032288189652253246 0.488
v 0.008333553495294029 0.0024720441845381795 0.488
v 0.00951589926245468 0.0015951568004410558 0.488
v 0.010606601717798212 0.0006066017177982132 0.488
v 0.011595156800441054 -0.0004841007375453177 0.488
v 0.01247204418453818 -0.0016664465047059682 0.488
v 0.013228818965225323 -0.002929048947610032 0.488
v 0.0138581929876693 -0.004259748514523652 0.488
v 0.014354105035983132 -0.0056457298411830645 0.488
v 0.014711779206048456 -0.007073645169758071 0.488
v 0.014927770900082953 -0.008529742895056588 0.488
v 0.015 -0.009999999999999998 0.488
v 0.014927770900082953 -0.01147025710494341 0.488
v 0.014711779206048456 -0.012926354830241925 0.488
v 0.014354105035983134 -0.01435427015881693 0.488
v 0.013858192987669302 -0.015740251485476343 0.488
v 0.013228818965225325 -0.017070951052389965 0.488
v 0.012472044184538181 -0.01833355349529403 0.488
v 0.011595156800441056 -0.01951589926245468 0.488
v 0.010606601717798215 -0.020606601717798212 0.488
v 0.00951589926245469 -0.02159515680044105 0.488
v 0.008333553495294032 -0.02247204418453818 0.488
v 0.007070951052389969 -0.02322881896522532 0.488
v 0.0057402514854763545 -0.023858192987669297 0.488
v 0.0043542701588169365 -0.024354105035983134 0.488
v 0.00292635483024193 -0.024711779206048452 0.488
v 0.0014702571049434068 -0.024927770900082954 0.488
v 2.7554552980815444e-18 -0.025 0.488
v -0.0014702571049434014 -0.024927770900082954 0.488
v -0.0029263548302419246 -0.024711779206048456 0.488
v -0.0043542701588169305 -0.024354105035983134 0.488
v -0.00574025148547635 -0.0238581929876693 0.488
v -0.007070951052389964 -0.023228818965225325 0.488
v -0.008333553495294027 -0.02247204418453818 0.488
v -0.009515899262454684 -0.02159515680044105 0.488
v -0.01060660171779821 -0.020606601717798215 0.488
v -0.011595156800441047 -0.01951589926245469 0.488
v -0.012472044184538178 -0.01833355349529403 0.488
v -0.013228818965225321 -0.017070951052389968 0.488
v -0.013858192987669297 -0.015740251485476357 0.488
v -0.014354105035983132 -0.014354270158816938 0.488
v -0.014711779206048454 -0.012926354830241932 0.488
v -0.014927770900082953 -0.011470257104943407 0.488
v -0.015 -0.010000000000000004 0.488
v -0.015 -0.01 0.501
v -0.014927770900082953 -0.008529742895056591 0.501
v -0.014711779206048456 -0.0070736451697580765 0.501
v -0.014354105035983132 -0.005645729841183065 0.501
v -0.0138581929876693 -0.0042597485145236536 0.501
v -0.013228818965225325 -0.0029290489476100356 0.501
v -0.012472044184538178 -0.0016664465047059682 0.501
v -0.011595156800441054 -0.0004841007375453177 0.501
v -0.010606601717798213 0.0006066017177982115 0.501
v -0.009515899262454683 0.0015951568004410523 0.501
v -0.008333553495294034 0.0024720441845381778 0.501
v -0.007070951052389967 0.003228818965225323 0.501
v -0.0057402514854763475 0.0038581929876693004 0.501
v -0.004354270158816935 0.004354105035983134 0.501
v -0.002926354830241925 0.004711779206048455 0.501
v -0.0014702571049434116 0.004927770900082952 0.501
v -9.184850993605148e-19 0.004999999999999999 0.501
v 0.0014702571049434096 0.004927770900082952 0.501
v 0.002926354830241923 0.004711779206048455 0.501
v 0.004354270158816932 0.004354105035983134 0.501
v 0.005740251485476346 0.0038581929876693004 0.501
v 0.007070951052389965 0.0032288189652253246 0.501
v 0.008333553495294029 0.0024720441845381795 0.501
v 0.00951589926245468 0.0015951568004410558 0.501
v 0.010606601717798212 0.0006066017177982132 0.501
v 0.011595156800441054 -0.0004841007375453177 0.501
v 0.01247204418453818 -0.0016664465047059682 0.501
v 0.013228818965225323 -0.002929048947610032 0.501
v 0.0138581929876693 -0.004259748514523652 0.501
v 0.014354105035983132 -0.0056457298411830645 0.501
v 0.014711779206048456 -0.007073645169758071 0.501
v 0.014927770900082953 -0.008529742895056588 0.501
v 0.015 -0.009999999999999998 0.501
v 0.014927770900082953 -0.01147025710494341 0.501
v 0.014711779206048456 -0.012926354830241925 0.501
v 0.014354105035983134 -0.01435427015881693 0.501
v 0.013858192987669302 -0.015740251485476343 0.501
v 0.013228818965225325 -0.017070951052389965 0.501
v 0.012472044184538181 -0.01833355349529403 0.501
v 0.011595156800441056 -0.01951589926245468 0.501
v 0.010606601717798215 -0.020606601717798212 0.501
v 0.00951589926245469 -0.02159515680044105 0.501
v 0.008333553495294032 -0.02247204418453818 0.501
v 0.007070951052389969 -0.02322881896522532 0.501
v 0.0057402514854763545 -0.023858192987669297 0.501
v 0.0043542701588169365 -0.024354105035983134 0.501
v 0.00292635483024193 -0.024711779206048452 0.501
v 0.0014702571049434068 -0.024927770900082954 0.501
v 2.7554552980815444e-18 -0.025 0.501
v -0.0014702571049434014 -0.024927770900082954 0.501
v -0.0029263548302419246 -0.024711779206048456 0.501
v -0.0043542701588169305 -0.024354105035983134 0.501
v -0.00574025148547635 -0.0238581929876693 0.501
v -0.007070951052389964 -0.023228818965225325 0.501
v -0.008333553495294027 -0.02247204418453818 0.501
v -0.009515899262454684 -0.02159515680044105 0.501
v -0.01060660171779821 -0.020606601717798215 0.501
v -0.011595156800441047 -0.01951589926245469 0.501
v -0.012472044184538178 -0.01833355349529403 0.501
v -0.013228818965225321 -0.017070951052389968 0.501
v -0.013858192987669297 -0.015740251485476357 0.501
v -0.014354105035983132 -0.014354270158816938 0.501
v -0.014711779206048454 -0.012926354830241932 0.501
v -0.014927770900082953 -0.011470257104943407 0.501
v -0.015 -0.010000000000000004 0.501
v -0.013 -0.01 0.505
v -0.012937401446738559 -0.008725777175715713 0.505
v -0.012750208645241994 -0.007463825813790333 0.505
v -0.012440224364518714 -0.00622629919569199 0.505
v -0.012010433922646727 -0.005025115379253833 0.505
v -0.011464976436528615 -0.003871842421262031 0.505
v -0.010809104959933088 -0.002777586970745172 0.505
v -0.01004913589371558 -0.00175288730587261 0.505
v -0.009192388155425118 -0.0008076118445748837 0.505
v -0.00824711269412739 0.00004913589371557947 0.505
v -0.007222413029254829 0.0008091049599330876 0.505
v -0.006128157578737971 0.0014649764365286134 0.505
v -0.004974884620746168 0.002010433922646727 0.505
v -0.00377370080430801 0.002440224364518715 0.505
v -0.0025361741862096683 0.002750208645241994 0.505
v -0.00127422282428429 0.0029374014467385585 0.505
v -7.960204194457796e-19 0.002999999999999999 0.505
v 0.0012742228242842884 0.0029374014467385585 0.505
v 0.0025361741862096666 0.002750208645241994 0.505
v 0.003773700804308008 0.002440224364518715 0.505
v 0.004974884620746166 0.002010433922646727 0.505
v 0.006128157578737969 0.0014649764365286151 0.505
v 0.007222413029254825 0.0008091049599330893 0.505
v 0.00824711269412739 0.000049135893715581205 0.505
v 0.009192388155425116 -0.000807611844574882 0.505
v 0.01004913589371558 -0.00175288730587261 0.505
v 0.01080910495993309 -0.002777586970745172 0.505
v 0.011464976436528614 -0.003871842421262028 0.505
v 0.012010433922646727 -0.005025115379253832 0.505
v 0.012440224364518714 -0.00622629919569199 0.505
v 0.012750208645241994 -0.007463825813790329 0.505
v 0.012937401446738559 -0.00872577717571571 0.505
v 0.013 -0.009999999999999998 0.505
v 0.012937401446738559 -0.011274222824284287 0.505
v 0.012750208645241994 -0.01253617418620967 0.505
v 0.012440224364518715 -0.013773700804308007 0.505
v 0.012010433922646729 -0.014974884620746165 0.505
v 0.011464976436528615 -0.01612815757873797 0.505
v 0.010809104959933091 -0.017222413029254827 0.505
v 0.010049135893715581 -0.01824711269412739 0.505
v 0.00919238815542512 -0.019192388155425115 0.505
v 0.008247112694127397 -0.020049135893715576 0.505
v 0.007222413029254828 -0.020809104959933086 0.505
v 0.006128157578737973 -0.021464976436528616 0.505
v 0.004974884620746174 -0.022010433922646726 0.505
v 0.0037737008043080117 -0.022440224364518715 0.505
v 0.0025361741862096727 -0.022750208645241993 0.505
v 0.0012742228242842858 -0.02293740144673856 0.505
v 2.3880612583373385e-18 -0.023 0.505
v -0.001274222824284281 -0.02293740144673856 0.505
v -0.002536174186209668 -0.022750208645241993 0.505
v -0.0037737008043080065 -0.022440224364518715 0.505
v -0.0049748846207461695 -0.022010433922646726 0.505
v -0.0061281575787379685 -0.021464976436528616 0.505
v -0.007222413029254824 -0.020809104959933093 0.505
v -0.008247112694127392 -0.02004913589371558 0.505
v -0.009192388155425115 -0.019192388155425122 0.505
v -0.010049135893715574 -0.018247112694127397 0.505
v -0.010809104959933088 -0.017222413029254827 0.505
v -0.011464976436528612 -0.01612815757873797 0.505
v -0.012010433922646724 -0.014974884620746174 0.505
v -0.012440224364518714 -0.013773700804308012 0.505
v -0.012750208645241994 -0.012536174186209673 0.505
v -0.012937401446738559 -0.011274222824284287 0.505
v -0.013 -0.010000000000000004 0.505
v 0 -0.01 0.486
v 0 -0.01 0.505
v -0.015 -0.01 0.49
v -0.014927770900082953 -0.008529742895056591 0.49
v -0.014711779206048456 -0.0070736451697580765 0.49
v -0.014354105035983132 -0.005645729841183065 0.49
v -0.0138581929876693 -0.0042597485145236536 0.49
v -0.013228818965225325 -0.0029290489476100356 0.49
v -0.012472044184538178 -0.0016664465047059682 0.49
v -0.011595156800441054 -0.0004841007375453177 0.49
v -0.010606601717798213 0.0006066017177982115 0.49
v -0.009515899262454683 0.0015951568004410523 0.49
v -0.008333553495294034 0.0024720441845381778 0.49
v -0.007070951052389967 0.003228818965225323 0.49
v -0.0057402514854763475 0.0038581929876693004 0.49
v -0.004354270158816935 0.004354105035983134 0.49
v -0.002926354830241925 0.004711779206048455 0.49
v -0.0014702571049434116 0.004927770900082952 0.49
v -9.184850993605148e-19 0.004999999999999999 0.49
v 0.0014702571049434096 0.004927770900082952 0.49
v 0.002926354830241923 0.004711779206048455 0.49
v 0.004354270158816932 0.004354105035983134 0.49
v 0.005740251485476346 0.0038581929876693004 0.49
v 0.007070951052389965 0.0032288189652253246 0.49
v 0.008333553495294029 0.0024720441845381795 0.49
v 0.00951589926245468 0.0015951568004410558 0.49
v 0.010606601717798212 0.0006066017177982132 0.49
v 0.011595156800441054 -0.0004841007375453177 0.49
v 0.01247204418453818 -0.0016664465047059682 0.49
v 0.013228818965225323 -0.002929048947610032 0.49
v 0.0138581929876693 -0.004259748514523652 0.49
v 0.014354105035983132 -0.0056457298411830645 0.49
v 0.014711779206048456 -0.007073645169758071 0.49
v 0.014927770900082953 -0.008529742895056588 0.49
v 0.015 -0.009999999999999998 0.49
v 0.014927770900082953 -0.01147025710494341 0.49
v 0.014711779206048456 -0.012926354830241925 0.49
v 0.014354105035983134 -0.01435427015881693 0.49
v 0.013858192987669302 -0.015740251485476343 0.49
v 0.013228818965225325 -0.017070951052389965 0.49
v 0.012472044184538181 -0.01833355349529403 0.49
v 0.011595156800441056 -0.01951589926245468 0.49
v 0.010606601717798215 -0.020606601717798212 0.49
v 0.00951589926245469 -0.02159515680044105 0.49
v 0.008333553495294032 -0.02247204418453818 0.49
v 0.007070951052389969 -0.02322881896522532 0.49
v 0.0057402514854763545 -0.023858192987669297 0.49
v 0.0043542701588169365 -0.024354105035983134 0.49
v 0.00292635483024193 -0.024711779206048452 0.49
v 0.0014702571049434068 -0.024927770900082954 0.49
v 2.7554552980815444e-18 -0.025 0.49
v -0.0014702571049434014 -0.024927770900082954 0.49
v -0.0029263548302419246 -0.024711779206048456 0.49
v -0.0043542701588169305 -0.024354105035983134 0.49
v -0.00574025148547635 -0.0238581929876693 0.49
v -0.007070951052389964 -0.023228818965225325 0.49
v -0.008333553495294027 -0.02247204418453818 0.49
v -0.009515899262454684 -0.02159515680044105 0.49
v -0.01060660171779821 -0.020606601717798215 0.49
v -0.011595156800441047 -0.01951589926245469 0.49
v -0.012472044184538178 -0.01833355349529403 0.49
v -0.013228818965225321 -0.017070951052389968 0.49
v -0.013858192987669297 -0.015740251485476357 0.49
v -0.014354105035983132 -0.014354270158816938 0.49
v -0.014711779206048454 -0.012926354830241932 0.49
v -0.014927770900082953 -0.011470257104943407 0.49
v -0.015 -0.010000000000000004 0.49
v -0.0154 -0.01 0.491
v -0.015325844790751834 -0.008490536038924766 0.491
v -0.01510409331820975 -0.006995609040951626 0.491
v -0.014736881170276016 -0.0055296159702812805 0.491
v -0.014227744800673816 -0.004106675141577617 0.491
v -0.013581587470964667 -0.0027404902528796364 0.491
v -0.012804632029459197 -0.001444218411498126 0.491
v -0.01190436098178615 -0.0002303434238798592 0.491
v -0.010889444430272833 0.0008894444302728309 0.491
v -0.009769656576120141 0.001904360981786148 0.491
v -0.008555781588501876 0.002804632029459197 0.491
v -0.007259509747120366 0.0035815874709646655 0.491
v -0.005893324858422384 0.004227744800673816 0.491
v -0.00447038402971872 0.004736881170276017 0.491
v -0.0030043909590483763 0.005104093318209749 0.491
v -0.0015094639610752358 0.005325844790751832 0.491
v -9.42978035343462e-19 0.0054 0.491
v 0.0015094639610752339 0.0053258447907518335 0.491
v 0.003004390959048374 0.005104093318209749 0.491
v 0.004470384029718717 0.004736881170276017 0.491
v 0.005893324858422382 0.004227744800673816 0.491
v 0.007259509747120365 0.0035815874709646672 0.491
v 0.00855578158850187 0.0028046320294591986 0.491
v 0.00976965657612014 0.0019043609817861514 0.491
v 0.010889444430272831 0.0008894444302728326 0.491
v 0.01190436098178615 -0.0002303434238798592 0.491
v 0.012804632029459199 -0.001444218411498126 0.491
v 0.013581587470964666 -0.002740490252879633 0.491
v 0.014227744800673816 -0.004106675141577616 0.491
v 0.014736881170276016 -0.00552961597028128 0.491
v 0.01510409331820975 -0.0069956090409516196 0.491
v 0.015325844790751832 -0.008490536038924763 0.491
v 0.0154 -0.009999999999999998 0.491
v 0.015325844790751834 -0.011509463961075234 0.491
v 0.01510409331820975 -0.013004390959048377 0.491
v 0.014736881170276018 -0.014470384029718716 0.491
v 0.014227744800673818 -0.015893324858422382 0.491
v 0.013581587470964667 -0.017259509747120365 0.491
v 0.0128046320294592 -0.018555781588501873 0.491
v 0.011904360981786152 -0.019769656576120138 0.491
v 0.010889444430272835 -0.02088944443027283 0.491
v 0.009769656576120148 -0.021904360981786143 0.491
v 0.008555781588501874 -0.022804632029459197 0.491
v 0.007259509747120368 -0.023581587470964664 0.491
v 0.0058933248584223915 -0.024227744800673814 0.491
v 0.004470384029718721 -0.024736881170276018 0.491
v 0.0030043909590483815 -0.025104093318209748 0.491
v 0.001509463961075231 -0.025325844790751832 0.491
v 2.828934106030386e-18 -0.0254 0.491
v -0.0015094639610752254 -0.025325844790751832 0.491
v -0.003004390959048376 -0.02510409331820975 0.491
v -0.004470384029718716 -0.024736881170276018 0.491
v -0.005893324858422386 -0.024227744800673814 0.491
v -0.007259509747120363 -0.023581587470964668 0.491
v -0.008555781588501869 -0.0228046320294592 0.491
v -0.009769656576120143 -0.02190436098178615 0.491
v -0.01088944443027283 -0.020889444430272835 0.491
v -0.011904360981786143 -0.019769656576120148 0.491
v -0.012804632029459197 -0.018555781588501873 0.491
v -0.013581587470964664 -0.01725950974712037 0.491
v -0.014227744800673812 -0.015893324858422393 0.491
v -0.014736881170276016 -0.014470384029718723 0.491
v -0.015104093318209747 -0.013004390959048383 0.491
v -0.015325844790751834 -0.011509463961075233 0.491
v -0.0154 -0.010000000000000004 0.491
v -0.015 -0.01 0.493
v -0.014927770900082953 -0.008529742895056591 0.493
v -0.014711779206048456 -0.0070736451697580765 0.493
v -0.014354105035983132 -0.005645729841183065 0.493
v -0.0138581929876693 -0.0042597485145236536 0.493
v -0.013228818965225325 -0.0029290489476100356 0.493
v -0.012472044184538178 -0.0016664465047059682 0.493
v -0.011595156800441054 -0.0004841007375453177 0.493
v -0.010606601717798213 0.0006066017177982115 0.493
v -0.009515899262454683 0.0015951568004410523 0.493
v -0.008333553495294034 0.0024720441845381778 0.493
v -0.007070951052389967 0.003228818965225323 0.493
v -0.0057402514854763475 0.0038581929876693004 0.493
v -0.004354270158816935 0.004354105035983134 0.493
v -0.002926354830241925 0.004711779206048455 0.493
v -0.0014702571049434116 0.004927770900082952 0.493
v -9.184850993605148e-19 0.004999999999999999 0.493
v 0.0014702571049434096 0.004927770900082952 0.493
v 0.002926354830241923 0.004711779206048455 0.493
v 0.004354270158816932 0.004354105035983134 0.493
v 0.005740251485476346 0.0038581929876693004 0.493
v 0.007070951052389965 0.0032288189652253246 0.493
v 0.008333553495294029 0.0024720441845381795 0.493
v 0.00951589926245468 0.0015951568004410558 0.493
v 0.010606601717798212 0.0006066017177982132 0.493
v 0.011595156800441054 -0.0004841007375453177 0.493
v 0.01247204418453818 -0.0016664465047059682 0.493
v 0.013228818965225323 -0.002929048947610032 0.493
v 0.0138581929876693 -0.004259748514523652 0.493
v 0.014354105035983132 -0.0056457298411830645 0.493
v 0.014711779206048456 -0.007073645169758071 0.493
v 0.014927770900082953 -0.008529742895056588 0.493
v 0.015 -0.009999999999999998 0.493
v 0.014927770900082953 -0.01147025710494341 0.493
v 0.014711779206048456 -0.012926354830241925 0.493
v 0.014354105035983134 -0.01435427015881693 0.493
v 0.013858192987669302 -0.015740251485476343 0.493
v 0.013228818965225325 -0.017070951052389965 0.493
v 0.012472044184538181 -0.01833355349529403 0.493
v 0.011595156800441056 -0.01951589926245468 0.493
v 0.010606601717798215 -0.020606601717798212 0.493
v 0.00951589926245469 -0.02159515680044105 0.493
v 0.008333553495294032 -0.02247204418453818 0.493
v 0.007070951052389969 -0.02322881896522532 0.493
v 0.0057402514854763545 -0.023858192987669297 0.493
v 0.0043542701588169365 -0.024354105035983134 0.493
v 0.00292635483024193 -0.024711779206048452 0.493
v 0.0014702571049434068 -0.024927770900082954 0.493
v 2.7554552980815444e-18 -0.025 0.493
v -0.0014702571049434014 -0.024927770900082954 0.493
v -0.0029263548302419246 -0.024711779206048456 0.493
v -0.0043542701588169305 -0.024354105035983134 0.493
v -0.00574025148547635 -0.0238581929876693 0.493
v -0.007070951052389964 -0.023228818965225325 0.493
v -0.008333553495294027 -0.02247204418453818 0.493
v -0.009515899262454684 -0.02159515680044105 0.493
v -0.01060660171779821 -0.020606601717798215 0.493
v -0.011595156800441047 -0.01951589926245469 0.493
v -0.012472044184538178 -0.01833355349529403 0.493
v -0.013228818965225321 -0.017070951052389968 0.493
v -0.013858192987669297 -0.015740251485476357 0.493
v -0.014354105035983132 -0.014354270158816938 0.493
v -0.014711779206048454 -0.012926354830241932 0.493
v -0.014927770900082953 -0.011470257104943407 0.493
v -0.015 -0.010000000000000004 0.493
v -0.0154 -0.01 0.494
v -0.015325844790751834 -0.008490536038924766 0.494
v -0.01510409331820975 -0.006995609040951626 0.494
v -0.014736881170276016 -0.0055296159702812805 0.494
v -0.014227744800673816 -0.004106675141577617 0.494
v -0.013581587470964667 -0.0027404902528796364 0.494
v -0.012804632029459197 -0.001444218411498126 0.494
v -0.01190436098178615 -0.0002303434238798592 0.494
v -0.010889444430272833 0.0008894444302728309 0.494
v -0.009769656576120141 0.001904360981786148 0.494
v -0.008555781588501876 0.002804632029459197 0.494
v -0.007259509747120366 0.0035815874709646655 0.494
v -0.005893324858422384 0.004227744800673816 0.494
v -0.00447038402971872 0.004736881170276017 0.494
v -0.0030043909590483763 0.005104093318209749 0.494
v -0.0015094639610752358 0.005325844790751832 0.494
v -9.42978035343462e-19 0.0054 0.494
v 0.0015094639610752339 0.0053258447907518335 0.494
v 0.003004390959048374 0.005104093318209749 0.494
v 0.004470384029718717 0.004736881170276017 0.494
v 0.005893324858422382 0.004227744800673816 0.494
v 0.007259509747120365 0.0035815874709646672 0.494
v 0.00855578158850187 0.0028046320294591986 0.494
v 0.00976965657612014 0.0019043609817861514 0.494
v 0.010889444430272831 0.0008894444302728326 0.494
v 0.01190436098178615 -0.0002303434238798592 0.494
v 0.012804632029459199 -0.001444218411498126 0.494
v 0.013581587470964666 -0.002740490252879633 0.494
v 0.014227744800673816 -0.004106675141577616 0.494
v 0.014736881170276016 -0.00552961597028128 0.494
v 0.01510409331820975 -0.0069956090409516196 0.494
v 0.015325844790751832 -0.008490536038924763 0.494
v 0.0154 -0.009999999999999998 0.494
v 0.015325844790751834 -0.011509463961075234 0.494
v 0.01510409331820975 -0.013004390959048377 0.494
v 0.014736881170276018 -0.014470384029718716 0.494
v 0.014227744800673818 -0.015893324858422382 0.494
v 0.013581587470964667 -0.017259509747120365 0.494
v 0.0128046320294592 -0.018555781588501873 0.494
v 0.011904360981786152 -0.019769656576120138 0.494
v 0.010889444430272835 -0.02088944443027283 0.494
v 0.009769656576120148 -0.021904360981786143 0.494
v 0.008555781588501874 -0.022804632029459197 0.494
v 0.007259509747120368 -0.023581587470964664 0.494
v 0.0058933248584223915 -0.024227744800673814 0.494
v 0.004470384029718721 -0.024736881170276018 0.494
v 0.0030043909590483815 -0.025104093318209748 0.494
v 0.001509463961075231 -0.025325844790751832 0.494
v 2.828934106030386e-18 -0.0254 0.494
v -0.0015094639610752254 -0.025325844790751832 0.494
v -0.003004390959048376 -0.02510409331820975 0.494
v -0.004470384029718716 -0.024736881170276018 0.494
v -0.005893324858422386 -0.024227744800673814 0.494
v -0.007259509747120363 -0.023581587470964668 0.494
v -0.008555781588501869 -0.0228046320294592 0.494
v -0.009769656576120143 -0.02190436098178615 0.494
v -0.01088944443027283 -0.020889444430272835 0.494
v -0.011904360981786143 -0.019769656576120148 0.494
v -0.012804632029459197 -0.018555781588501873 0.494
v -0.013581587470964664 -0.01725950974712037 0.494
v -0.014227744800673812 -0.015893324858422393 0.494
v -0.014736881170276016 -0.014470384029718723 0.494
v -0.015104093318209747 -0.013004390959048383 0.494
v -0.015325844790751834 -0.011509463961075233 0.494
v -0.0154 -0.010000000000000004 0.494
v -0.015 -0.01 0.496
v -0.014927770900082953 -0.008529742895056591 0.496
v -0.014711779206048456 -0.0070736451697580765 0.496
v -0.014354105035983132 -0.005645729841183065 0.496
v -0.0138581929876693 -0.0042597485145236536 0.496
v -0.013228818965225325 -0.0029290489476100356 0.496
v -0.012472044184538178 -0.0016664465047059682 0.496
v -0.011595156800441054 -0.0004841007375453177 0.496
v -0.010606601717798213 0.0006066017177982115 0.496
v -0.009515899262454683 0.0015951568004410523 0.496
v -0.008333553495294034 0.0024720441845381778 0.496
v -0.007070951052389967 0.003228818965225323 0.496
v -0.0057402514854763475 0.0038581929876693004 0.496
v -0.004354270158816935 0.004354105035983134 0.496
v -0.002926354830241925 0.004711779206048455 0.496
v -0.0014702571049434116 0.004927770900082952 0.496
v -9.184850993605148e-19 0.004999999999999999 0.496
v 0.0014702571049434096 0.004927770900082952 0.496
v 0.002926354830241923 0.004711779206048455 0.496
v 0.004354270158816932 0.004354105035983134 0.496
v 0.005740251485476346 0.0038581929876693004 0.496
v 0.007070951052389965 0.0032288189652253246 0.496
v 0.008333553495294029 0.0024720441845381795 0.496
v 0.00951589926245468 0.0015951568004410558 0.496
v 0.010606601717798212 0.0006066017177982132 0.496
v 0.011595156800441054 -0.0004841007375453177 0.496
v 0.01247204418453818 -0.0016664465047059682 0.496
v 0.013228818965225323 -0.002929048947610032 0.496
v 0.0138581929876693 -0.004259748514523652 0.496
v 0.014354105035983132 -0.0056457298411830645 0.496
v 0.014711779206048456 -0.007073645169758071 0.496
v 0.014927770900082953 -0.008529742895056588 0.496
v 0.015 -0.009999999999999998 0.496
v 0.014927770900082953 -0.01147025710494341 0.496
v 0.014711779206048456 -0.012926354830241925 0.496
v 0.014354105035983134 -0.01435427015881693 0.496
v 0.013858192987669302 -0.015740251485476343 0.496
v 0.013228818965225325 -0.017070951052389965 0.496
v 0.012472044184538181 -0.01833355349529403 0.496
v 0.011595156800441056 -0.01951589926245468 0.496
v 0.010606601717798215 -0.020606601717798212 0.496
v 0.00951589926245469 -0.02159515680044105 0.496
v 0.008333553495294032 -0.02247204418453818 0.496
v 0.007070951052389969 -0.02322881896522532 0.496
v 0.0057402514854763545 -0.023858192987669297 0.496
v 0.0043542701588169365 -0.024354105035983134 0.496
v 0.00292635483024193 -0.024711779206048452 0.496
v 0.0014702571049434068 -0.024927770900082954 0.496
v 2.7554552980815444e-18 -0.025 0.496
v -0.0014702571049434014 -0.024927770900082954 0.496
v -0.0029263548302419246 -0.024711779206048456 0.496
v -0.0043542701588169305 -0.024354105035983134 0.496
v -0.00574025148547635 -0.0238581929876693 0.496
v -0.007070951052389964 -0.023228818965225325 0.496
v -0.008333553495294027 -0.02247204418453818 0.496
v -0.009515899262454684 -0.02159515680044105 0.496
v -0.01060660171779821 -0.020606601717798215 0.496
v -0.011595156800441047 -0.01951589926245469 0.496
v -0.012472044184538178 -0.01833355349529403 0.496
v -0.013228818965225321 -0.017070951052389968 0.496
v -0.013858192987669297 -0.015740251485476357 0.496
v -0.014354105035983132 -0.014354270158816938 0.496
v -0.014711779206048454 -0.012926354830241932 0.496
v -0.014927770900082953 -0.011470257104943407 0.496
v -0.015 -0.010000000000000004 0.496
v -0.0154 -0.01 0.497
v -0.015325844790751834 -0.008490536038924766 0.497
v -0.01510409331820975 -0.006995609040951626 0.497
v -0.014736881170276016 -0.0055296159702812805 0.497
v -0.014227744800673816 -0.004106675141577617 0.497
v -0.013581587470964667 -0.0027404902528796364 0.497
v -0.012804632029459197 -0.001444218411498126 0.497
v -0.01190436098178615 -0.0002303434238798592 0.497
v -0.010889444430272833 0.0008894444302728309 0.497
v -0.009769656576120141 0.001904360981786148 0.497
v -0.008555781588501876 0.002804632029459197 0.497
v -0.007259509747120366 0.0035815874709646655 0.497
v -0.005893324858422384 0.004227744800673816 0.497
v -0.00447038402971872 0.004736881170276017 0.497
v -0.0030043909590483763 0.005104093318209749 0.497
v -0.0015094639610752358 0.005325844790751832 0.497
v -9.42978035343462e-19 0.0054 0.497
v 0.0015094639610752339 0.0053258447907518335 0.497
v 0.003004390959048374 0.005104093318209749 0.497
v 0.004470384029718717 0.004736881170276017 0.497
v 0.005893324858422382 0.004227744800673816 0.497
v 0.007259509747120365 0.0035815874709646672 0.497
v 0.00855578158850187 0.0028046320294591986 0.497
v 0.00976965657612014 0.0019043609817861514 0.497
v 0.010889444430272831 0.0008894444302728326 0.497
v 0.01190436098178615 -0.0002303434238798592 0.497
v 0.012804632029459199 -0.001444218411498126 0.497
v 0.013581587470964666 -0.002740490252879633 0.497
v 0.014227744800673816 -0.004106675141577616 0.497
v 0.014736881170276016 -0.00552961597028128 0.497
v 0.01510409331820975 -0.0069956090409516196 0.497
v 0.015325844790751832 -0.008490536038924763 0.497
v 0.0154 -0.009999999999999998 0.497
v 0.015325844790751834 -0.011509463961075234 0.497
v 0.01510409331820975 -0.013004390959048377 0.497
v 0.014736881170276018 -0.014470384029718716 0.497
v 0.014227744800673818 -0.015893324858422382 0.497
v 0.013581587470964667 -0.017259509747120365 0.497
v 0.0128046320294592 -0.018555781588501873 0.497
v 0.011904360981786152 -0.019769656576120138 0.497
v 0.010889444430272835 -0.02088944443027283 0.497
v 0.009769656576120148 -0.021904360981786143 0.497
v 0.008555781588501874 -0.022804632029459197 0.497
v 0.007259509747120368 -0.023581587470964664 0.497
v 0.0058933248584223915 -0.024227744800673814 0.497
v 0.004470384029718721 -0.024736881170276018 0.497
v 0.0030043909590483815 -0.025104093318209748 0.497
v 0.001509463961075231 -0.025325844790751832 0.497
v 2.828934106030386e-18 -0.0254 0.497
v -0.0015094639610752254 -0.025325844790751832 0.497
v -0.003004390959048376 -0.02510409331820975 0.497
v -0.004470384029718716 -0.024736881170276018 0.497
v -0.005893324858422386 -0.024227744800673814 0.497
v -0.007259509747120363 -0.023581587470964668 0.497
v -0.008555781588501869 -0.0228046320294592 0.497
v -0.009769656576120143 -0.02190436098178615 0.497
v -0.01088944443027283 -0.020889444430272835 0.497
v -0.011904360981786143 -0.019769656576120148 0.497
v -0.012804632029459197 -0.018555781588501873 0.497
v -0.013581587470964664 -0.01725950974712037 0.497
v -0.014227744800673812 -0.015893324858422393 0.497
v -0.014736881170276016 -0.014470384029718723 0.497
v -0.015104093318209747 -0.013004390959048383 0.497
v -0.015325844790751834 -0.011509463961075233 0.497
v -0.0154 -0.010000000000000004 0.497
v -0.015 -0.01 0.499
v -0.014927770900082953 -0.008529742895056591 0.499
v -0.014711779206048456 -0.0070736451697580765 0.499
v -0.014354105035983132 -0.005645729841183065 0.499
v -0.0138581929876693 -0.0042597485145236536 0.499
v -0.013228818965225325 -0.0029290489476100356 0.499
v -0.012472044184538178 -0.0016664465047059682 0.499
v -0.011595156800441054 -0.0004841007375453177 0.499
v -0.010606601717798213 0.0006066017177982115 0.499
v -0.009515899262454683 0.0015951568004410523 0.499
v -0.008333553495294034 0.0024720441845381778 0.499
v -0.007070951052389967 0.003228818965225323 0.499
v -0.0057402514854763475 0.0038581929876693004 0.499
v -0.004354270158816935 0.004354105035983134 0.499
v -0.002926354830241925 0.004711779206048455 0.499
v -0.0014702571049434116 0.004927770900082952 0.499
v -9.184850993605148e-19 0.004999999999999999 0.499
v 0.0014702571049434096 0.004927770900082952 0.499
v 0.002926354830241923 0.004711779206048455 0.499
v 0.004354270158816932 0.004354105035983134 0.499
v 0.005740251485476346 0.0038581929876693004 0.499
v 0.007070951052389965 0.0032288189652253246 0.499
v 0.008333553495294029 0.0024720441845381795 0.499
v 0.00951589926245468 0.0015951568004410558 0.499
v 0.010606601717798212 0.0006066017177982132 0.499
v 0.011595156800441054 -0.0004841007375453177 0.499
v 0.01247204418453818 -0.0016664465047059682 0.499
v 0.013228818965225323 -0.002929048947610032 0.499
v 0.0138581929876693 -0.004259748514523652 0.499
v 0.014354105035983132 -0.0056457298411830645 0.499
v 0.014711779206048456 -0.007073645169758071 0.499
v 0.014927770900082953 -0.008529742895056588 0.499
v 0.015 -0.009999999999999998 0.499
v 0.014927770900082953 -0.01147025710494341 0.499
v 0.014711779206048456 -0.012926354830241925 0.499
v 0.014354105035983134 -0.01435427015881693 0.499
v 0.013858192987669302 -0.015740251485476343 0.499
v 0.013228818965225325 -0.017070951052389965 0.499
v 0.012472044184538181 -0.01833355349529403 0.499
v 0.011595156800441056 -0.01951589926245468 0.499
v 0.010606601717798215 -0.020606601717798212 0.499
v 0.00951589926245469 -0.02159515680044105 0.499
v 0.008333553495294032 -0.02247204418453818 0.499
v 0.007070951052389969 -0.02322881896522532 0.499
v 0.0057402514854763545 -0.023858192987669297 0.499
v 0.0043542701588169365 -0.024354105035983134 0.499
v 0.00292635483024193 -0.024711779206048452 0.499
v 0.0014702571049434068 -0.024927770900082954 0.499
v 2.7554552980815444e-18 -0.025 0.499
v -0.0014702571049434014 -0.024927770900082954 0.499
v -0.0029263548302419246 -0.024711779206048456 0.499
v -0.0043542701588169305 -0.024354105035983134 0.499
v -0.00574025148547635 -0.0238581929876693 0.499
v -0.007070951052389964 -0.023228818965225325 0.499
v -0.008333553495294027 -0.02247204418453818 0.499
v -0.009515899262454684 -0.02159515680044105 0.499
v -0.01060660171779821 -0.020606601717798215 0.499
v -0.011595156800441047 -0.01951589926245469 0.499
v -0.012472044184538178 -0.01833355349529403 0.499
v -0.013228818965225321 -0.017070951052389968 0.499
v -0.013858192987669297 -0.015740251485476357 0.499
v -0.014354105035983132 -0.014354270158816938 0.499
v -0.014711779206048454 -0.012926354830241932 0.499
v -0.014927770900082953 -0.011470257104943407 0.499
v -0.015 -0.010000000000000004 0.499
v -0.0154 -0.01 0.5
v -0.015325844790751834 -0.008490536038924766 0.5
v -0.01510409331820975 -0.006995609040951626 0.5
v -0.014736881170276016 -0.0055296159702812805 0.5
v -0.014227744800673816 -0.004106675141577617 0.5
v -0.013581587470964667 -0.0027404902528796364 0.5
v -0.012804632029459197 -0.001444218411498126 0.5
v -0.01190436098178615 -0.0002303434238798592 0.5
v -0.010889444430272833 0.0008894444302728309 0.5
v -0.009769656576120141 0.001904360981786148 0.5
v -0.008555781588501876 0.002804632029459197 0.5
v -0.007259509747120366 0.0035815874709646655 0.5
v -0.005893324858422384 0.004227744800673816 0.5
v -0.00447038402971872 0.004736881170276017 0.5
v -0.0030043909590483763 0.005104093318209749 0.5
v -0.0015094639610752358 0.005325844790751832 0.5
v -9.42978035343462e-19 0.0054 0.5
v 0.0015094639610752339 0.0053258447907518335 0.5
v 0.003004390959048374 0.005104093318209749 0.5
v 0.004470384029718717 0.004736881170276017 0.5
v 0.005893324858422382 0.004227744800673816 0.5
v 0.007259509747120365 0.0035815874709646672 0.5
v 0.00855578158850187 0.0028046320294591986 0.5
v 0.00976965657612014 0.0019043609817861514 0.5
v 0.010889444430272831 0.0008894444302728326 0.5
v 0.01190436098178615 -0.0002303434238798592 0.5
v 0.012804632029459199 -0.001444218411498126 0.5
v 0.013581587470964666 -0.002740490252879633 0.5
v 0.014227744800673816 -0.004106675141577616 0.5
v 0.014736881170276016 -0.00552961597028128 0.5
v 0.01510409331820975 -0.0069956090409516196 0.5
v 0.015325844790751832 -0.008490536038924763 0.5
v 0.0154 -0.009999999999999998 0.5
v 0.015325844790751834 -0.011509463961075234 0.5
v 0.01510409331820975 -0.013004390959048377 0.5
v 0.014736881170276018 -0.014470384029718716 0.5
v 0.014227744800673818 -0.015893324858422382 0.5
v 0.013581587470964667 -0.017259509747120365 0.5
v 0.0128046320294592 -0.018555781588501873 0.5
v 0.011904360981786152 -0.019769656576120138 0.5
v 0.010889444430272835 -0.02088944443027283 0.5
v 0.009769656576120148 -0.021904360981786143 0.5
v 0.008555781588501874 -0.022804632029459197 0.5
v 0.007259509747120368 -0.023581587470964664 0.5
v 0.0058933248584223915 -0.024227744800673814 0.5
v 0.004470384029718721 -0.024736881170276018 0.5
v 0.0030043909590483815 -0.025104093318209748 0.5
v 0.001509463961075231 -0.025325844790751832 0.5
v 2.828934106030386e-18 -0.0254 0.5
v -0.0015094639610752254 -0.025325844790751832 0.5
v -0.003004390959048376 -0.02510409331820975 0.5
v -0.004470384029718716 -0.024736881170276018 0.5
v -0.005893324858422386 -0.024227744800673814 0.5
v -0.007259509747120363 -0.023581587470964668 0.5
v -0.008555781588501869 -0.0228046320294592 0.5
v -0.009769656576120143 -0.02190436098178615 0.5
v -0.01088944443027283 -0.020889444430272835 0.5
v -0.011904360981786143 -0.019769656576120148 0.5
v -0.012804632029459197 -0.018555781588501873 0.5
v -0.013581587470964664 -0.01725950974712037 0.5
v -0.014227744800673812 -0.015893324858422393 0.5
v -0.014736881170276016 -0.014470384029718723 0.5
v -0.015104093318209747 -0.013004390959048383 0.5
v -0.015325844790751834 -0.011509463961075233 0.5
v -0.0154 -0.010000000000000004 0.5
vt 0 0
vt 0 0.015625
vt 0 0.03125
vt 0 0.046875
vt 0 0.0625
vt 0 0.078125
vt 0 0.09375
vt 0 0.109375
vt 0 0.125
vt 0 0.140625
vt 0 0.15625
vt 0 0.171875
vt 0 0.1875
vt 0 0.203125
vt 0 0.21875
vt 0 0.234375
vt 0 0.25
vt 0 0.265625
vt 0 0.28125
vt 0 0.296875
vt 0 0.3125
vt 0 0.328125
vt 0 0.34375
vt 0 0.359375
vt 0 0.375
vt 0 0.390625
vt 0 0.40625
vt 0 0.421875
vt 0 0.4375
vt 0 0.453125
vt 0 0.46875
vt 0 0.484375
vt 0 0.5
vt 0 0.515625
vt 0 0.53125
vt 0 0.546875
vt 0 0.5625
vt 0 0.578125
vt 0 0.59375
vt 0 0.609375
vt 0 0.625
vt 0 0.640625
vt 0 0.65625
vt 0 0.671875
vt 0 0.6875
vt 0 0.703125
vt 0 0.71875
vt 0 0.734375
vt 0 0.75
vt 0 0.765625
vt 0 0.78125
vt 0 0.796875
vt 0 0.8125
vt 0 0.828125
vt 0 0.84375
vt 0 0.859375
vt 0 0.875
vt 0 0.890625
vt 0 0.90625
vt 0 0.921875
vt 0 0.9375
vt 0 0.953125
vt 0 0.96875
vt 0 0.984375
vt 0 1
vt 0.10526315789473684 0
vt 0.10526315789473684 0.015625
vt 0.10526315789473684 0.03125
vt 0.10526315789473684 0.046875
vt 0.10526315789473684 0.0625
vt 0.10526315789473684 0.078125
vt 0.10526315789473684 0.09375
vt 0.10526315789473684 0.109375
vt 0.10526315789473684 0.125
vt 0.10526315789473684 0.140625
vt 0.10526315789473684 0.15625
vt 0.10526315789473684 0.171875
vt 0.10526315789473684 0.1875
vt 0.10526315789473684 0.203125
vt 0.10526315789473684 0.21875
vt 0.10526315789473684 0.234375
vt 0.10526315789473684 0.25
vt 0.10526315789473684 0.265625
vt 0.10526315789473684 0.28125
vt 0.10526315789473684 0.296875
vt 0.10526315789473684 0.3125
vt 0.10526315789473684 0.328125
vt 0.10526315789473684 0.34375
vt 0.10526315789473684 0.359375
vt 0.10526315789473684 0.375
vt 0.10526315789473684 0.390625
vt 0.10526315789473684 0.40625
vt 0.10526315789473684 0.421875
vt 0.10526315789473684 0.4375
vt 0.10526315789473684 0.453125
vt 0.10526315789473684 0.46875
vt 0.10526315789473684 0.484375
vt 0.10526315789473684 0.5
vt 0.10526315789473684 0.515625
vt 0.10526315789473684 0.53125
vt 0.10526315789473684 0.546875
vt 0.10526315789473684 0.5625
vt 0.10526315789473684 0.578125
vt 0.10526315789473684 0.59375
vt 0.10526315789473684 0.609375
vt 0.10526315789473684 0.625
vt 0.10526315789473684 0.640625
vt 0.10526315789473684 0.65625
vt 0.10526315789473684 0.671875
vt 0.10526315789473684 0.6875
vt 0.10526315789473684 0.703125
vt 0.10526315789473684 0.71875
vt 0.10526315789473684 0.734375
vt 0.10526315789473684 0.75
vt 0.10526315789473684 0.765625
vt 0.10526315789473684 0.78125
vt 0.10526315789473684 0.796875
vt 0.10526315789473684 0.8125
vt 0.10526315789473684 0.828125
vt 0.10526315789473684 0.84375
vt 0.10526315789473684 0.859375
vt 0.10526315789473684 0.875
vt 0.10526315789473684 0.890625
vt 0.10526315789473684 0.90625
vt 0.10526315789473684 0.921875
vt 0.10526315789473684 0.9375
vt 0.10526315789473684 0.953125
vt 0.10526315789473684 0.96875
vt 0.10526315789473684 0.984375
vt 0.10526315789473684 1
vt 0.7894736842105263 0
vt 0.7894736842105263 0.015625
vt 0.7894736842105263 0.03125
vt 0.7894736842105263 0.046875
vt 0.7894736842105263 0.0625
vt 0.7894736842105263 0.078125
vt 0.7894736842105263 0.09375
vt 0.7894736842105263 0.109375
vt 0.7894736842105263 0.125
vt 0.7894736842105263 0.140625
vt 0.7894736842105263 0.15625
vt 0.7894736842105263 0.171875
vt 0.7894736842105263 0.1875
vt 0.7894736842105263 0.203125
vt 0.7894736842105263 0.21875
vt 0.7894736842105263 0.234375
vt 0.7894736842105263 0.25
vt 0.7894736842105263 0.265625
vt 0.7894736842105263 0.28125
vt 0.7894736842105263 0.296875
vt 0.7894736842105263 0.3125
vt 0.7894736842105263 0.328125
vt 0.7894736842105263 0.34375
vt 0.7894736842105263 0.359375
vt 0.7894736842105263 0.375
vt 0.7894736842105263 0.390625
vt 0.7894736842105263 0.40625
vt 0.7894736842105263 0.421875
vt 0.7894736842105263 0.4375
vt 0.7894736842105263 0.453125
vt 0.7894736842105263 0.46875
vt 0.7894736842105263 0.484375
vt 0.7894736842105263 0.5
vt 0.7894736842105263 0.515625
vt 0.7894736842105263 0.53125
vt 0.7894736842105263 0.546875
vt 0.7894736842105263 0.5625
vt 0.7894736842105263 0.578125
vt 0.7894736842105263 0.59375
vt 0.7894736842105263 0.609375
vt 0.7894736842105263 0.625
vt 0.7894736842105263 0.640625
vt 0.7894736842105263 0.65625
vt 0.7894736842105263 0.671875
vt 0.7894736842105263 0.6875
vt 0.7894736842105263 0.703125
vt 0.7894736842105263 0.71875
vt 0.7894736842105263 0.734375
vt 0.7894736842105263 0.75
vt 0.7894736842105263 0.765625
vt 0.7894736842105263 0.78125
vt 0.7894736842105263 0.796875
vt 0.7894736842105263 0.8125
vt 0.7894736842105263 0.828125
vt 0.7894736842105263 0.84375
vt 0.7894736842105263 0.859375
vt 0.7894736842105263 0.875
vt 0.7894736842105263 0.890625
vt 0.7894736842105263 0.90625
vt 0.7894736842105263 0.921875
vt 0.7894736842105263 0.9375
vt 0.7894736842105263 0.953125
vt 0.7894736842105263 0.96875
vt 0.7894736842105263 0.984375
vt 0.7894736842105263 1
vt 1 0
vt 1 0.015625
vt 1 0.03125
vt 1 0.046875
vt 1 0.0625
vt 1 0.078125
vt 1 0.09375
vt 1 0.109375
vt 1 0.125
vt 1 0.140625
vt 1 0.15625
vt 1 0.171875
vt 1 0.1875
vt 1 0.203125
vt 1 0.21875
vt 1 0.234375
vt 1 0.25
vt 1 0.265625
vt 1 0.28125
vt 1 0.296875
vt 1 0.3125
vt 1 0.328125
vt 1 0.34375
vt 1 0.359375
vt 1 0.375
vt 1 0.390625
vt 1 0.40625
vt 1 0.421875
vt 1 0.4375
vt 1 0.453125
vt 1 0.46875
vt 1 0.484375
vt 1 0.5
vt 1 0.515625
vt 1 0.53125
vt 1 0.546875
vt 1 0.5625
vt 1 0.578125
vt 1 0.59375
vt 1 0.609375
vt 1 0.625
vt 1 0.640625
vt 1 0.65625
vt 1 0.671875
vt 1 0.6875
vt 1 0.703125
vt 1 0.71875
vt 1 0.734375
vt 1 0.75
vt 1 0.765625
vt 1 0.78125
vt 1 0.796875
vt 1 0.8125
vt 1 0.828125
vt 1 0.84375
vt 1 0.859375
vt 1 0.875
vt 1 0.890625
vt 1 0.90625
vt 1 0.921875
vt 1 0.9375
vt 1 0.953125
vt 1 0.96875
vt 1 0.984375
vt 1 1
vt 0.5 0.5
vt 0.5 0.5
vt 0 0
vt 0 0.015625
vt 0 0.03125
vt 0 0.046875
vt 0 0.0625
vt 0 0.078125
vt 0 0.09375
vt 0 0.109375
vt 0 0.125
vt 0 0.140625
vt 0 0.15625
vt 0 0.171875
vt 0 0.1875
vt 0 0.203125
vt 0 0.21875
vt 0 0.234375
vt 0 0.25
vt 0 0.265625
vt 0 0.28125
vt 0 0.296875
vt 0 0.3125
vt 0 0.328125
vt 0 0.34375
vt 0 0.359375
vt 0 0.375
vt 0 0.390625
vt 0 0.40625
vt 0 0.421875
vt 0 0.4375
vt 0 0.453125
vt 0 0.46875
vt 0 0.484375
vt 0 0.5
vt 0 0.515625
vt 0 0.53125
vt 0 0.546875
vt 0 0.5625
vt 0 0.578125
vt 0 0.59375
vt 0 0.609375
vt 0 0.625
vt 0 0.640625
vt 0 0.65625
vt 0 0.671875
vt 0 0.6875
vt 0 0.703125
vt 0 0.71875
vt 0 0.734375
vt 0 0.75
vt 0 0.765625
vt 0 0.78125
vt 0 0.796875
vt 0 0.8125
vt 0 0.828125
vt 0 0.84375
vt 0 0.859375
vt 0 0.875
vt 0 0.890625
vt 0 0.90625
vt 0 0.921875
vt 0 0.9375
vt 0 0.953125
vt 0 0.96875
vt 0 0.984375
vt 0 1
vt 1 0
vt 1 0.015625
vt 1 0.03125
vt 1 0.046875
vt 1 0.0625
vt 1 0.078125
vt 1 0.09375
vt 1 0.109375
vt 1 0.125
vt 1 0.140625
vt 1 0.15625
vt 1 0.171875
vt 1 0.1875
vt 1 0.203125
vt 1 0.21875
vt 1 0.234375
vt 1 0.25
vt 1 0.265625
vt 1 0.28125
vt 1 0.296875
vt 1 0.3125
vt 1 0.328125
vt 1 0.34375
vt 1 0.359375
vt 1 0.375
vt 1 0.390625
vt 1 0.40625
vt 1 0.421875
vt 1 0.4375
vt 1 0.453125
vt 1 0.46875
vt 1 0.484375
vt 1 0.5
vt 1 0.515625
vt 1 0.53125
vt 1 0.546875
vt 1 0.5625
vt 1 0.578125
vt 1 0.59375
vt 1 0.609375
vt 1 0.625
vt 1 0.640625
vt 1 0.65625
vt 1 0.671875
vt 1 0.6875
vt 1 0.703125
vt 1 0.71875
vt 1 0.734375
vt 1 0.75
vt 1 0.765625
vt 1 0.78125
vt 1 0.796875
vt 1 0.8125
vt 1 0.828125
vt 1 0.84375
vt 1 0.859375
vt 1 0.875
vt 1 0.890625
vt 1 0.90625
vt 1 0.921875
vt 1 0.9375
vt 1 0.953125
vt 1 0.96875
vt 1 0.984375
vt 1 1
vt 0 0
vt 0 0.015625
vt 0 0.03125
vt 0 0.046875
vt 0 0.0625
vt 0 0.078125
vt 0 0.09375
vt 0 0.109375
vt 0 0.125
vt 0 0.140625
vt 0 0.15625
vt 0 0.171875
vt 0 0.1875
vt 0 0.203125
vt 0 0.21875
vt 0 0.234375
vt 0 0.25
vt 0 0.265625
vt 0 0.28125
vt 0 0.296875
vt 0 0.3125
vt 0 0.328125
vt 0 0.34375
vt 0 0.359375
vt 0 0.375
vt 0 0.390625
vt 0 0.40625
vt 0 0.421875
vt 0 0.4375
vt 0 0.453125
vt 0 0.46875
vt 0 0.484375
vt 0 0.5
vt 0 0.515625
vt 0 0.53125
vt 0 0.546875
vt 0 0.5625
vt 0 0.578125
vt 0 0.59375
vt 0 0.609375
vt 0 0.625
vt 0 0.640625
vt 0 0.65625
vt 0 0.671875
vt 0 0.6875
vt 0 0.703125
vt 0 0.71875
vt 0 0.734375
vt 0 0.75
vt 0 0.765625
vt 0 0.78125
vt 0 0.796875
vt 0 0.8125
vt 0 0.828125
vt 0 0.84375
vt 0 0.859375
vt 0 0.875
vt 0 0.890625
vt 0 0.90625
vt 0 0.921875
vt 0 0.9375
vt 0 0.953125
vt 0 0.96875
vt 0 0.984375
vt 0 1
vt 1 0
vt 1 0.015625
vt 1 0.03125
vt 1 0.046875
vt 1 0.0625
vt 1 0.078125
vt 1 0.09375
vt 1 0.109375
vt 1 0.125
vt 1 0.140625
vt 1 0.15625
vt 1 0.171875
vt 1 0.1875
vt 1 0.203125
vt 1 0.21875
vt 1 0.234375
vt 1 0.25
vt 1 0.265625
vt 1 0.28125
vt 1 0.296875
vt 1 0.3125
vt 1 0.328125
vt 1 0.34375
vt 1 0.359375
vt 1 0.375
vt 1 0.390625
vt 1 0.40625
vt 1 0.421875
vt 1 0.4375
vt 1 0.453125
vt 1 0.46875
vt 1 0.484375
vt 1 0.5
vt 1 0.515625
vt 1 0.53125
vt 1 0.546875
vt 1 0.5625
vt 1 0.578125
vt 1 0.59375
vt 1 0.609375
vt 1 0.625
vt 1 0.640625
vt 1 0.65625
vt 1 0.671875
vt 1 0.6875
vt 1 0.703125
vt 1 0.71875
vt 1 0.734375
vt 1 0.75
vt 1 0.765625
vt 1 0.78125
vt 1 0.796875
vt 1 0.8125
vt 1 0.828125
vt 1 0.84375
vt 1 0.859375
vt 1 0.875
vt 1 0.890625
vt 1 0.90625
vt 1 0.921875
vt 1 0.9375
vt 1 0.953125
vt 1 0.96875
vt 1 0.984375
vt 1 1
vt 0 0
vt 0 0.015625
vt 0 0.03125
vt 0 0.046875
vt 0 0.0625
vt 0 0.078125
vt 0 0.09375
vt 0 0.109375
vt 0 0.125
vt 0 0.140625
vt 0 0.15625
vt 0 0.171875
vt 0 0.1875
vt 0 0.203125
vt 0 0.21875
vt 0 0.234375
vt 0 0.25
vt 0 0.265625
vt 0 0.28125
vt 0 0.296875
vt 0 0.3125
vt 0 0.328125
vt 0 0.34375
vt 0 0.359375
vt 0 0.375
vt 0 0.390625
vt 0 0.40625
vt 0 0.421875
vt 0 0.4375
vt 0 0.453125
vt 0 0.46875
vt 0 0.484375
vt 0 0.5
vt 0 0.515625
vt 0 0.53125
vt 0 0.546875
vt 0 0.5625
vt 0 0.578125
vt 0 0.59375
vt 0 0.609375
vt 0 0.625
vt 0 0.640625
vt 0 0.65625
vt 0 0.671875
vt 0 0.6875
vt 0 0.703125
vt 0 0.71875
vt 0 0.734375
vt 0 0.75
vt 0 0.765625
vt 0 0.78125
vt 0 0.796875
vt 0 0.8125
vt 0 0.828125
vt 0 0.84375
vt 0 0.859375
vt 0 0.875
vt 0 0.890625
vt 0 0.90625
vt 0 0.921875
vt 0 0.9375
vt 0 0.953125
vt 0 0.96875
vt 0 0.984375
vt 0 1
vt 1 0
vt 1 0.015625
vt 1 0.03125
vt 1 0.046875
vt 1 0.0625
vt 1 0.078125
vt 1 0.09375
vt 1 0.109375
vt 1 0.125
vt 1 0.140625
vt 1 0.15625
vt 1 0.171875
vt 1 0.1875
vt 1 0.203125
vt 1 0.21875
vt 1 0.234375
vt 1 0.25
vt 1 0.265625
vt 1 0.28125
vt 1 0.296875
vt 1 0.3125
vt 1 0.328125
vt 1 0.34375
vt 1 0.359375
vt 1 0.375
vt 1 0.390625
vt 1 0.40625
vt 1 0.421875
vt 1 0.4375
vt 1 0.453125
vt 1 0.46875
vt 1 0.484375
vt 1 0.5
vt 1 0.515625
vt 1 0.53125
vt 1 0.546875
vt 1 0.5625
vt 1 0.578125
vt 1 0.59375
vt 1 0.609375
vt 1 0.625
vt 1 0.640625
vt 1 0.65625
vt 1 0.671875
vt 1 0.6875
vt 1 0.703125
vt 1 0.71875
vt 1 0.734375
vt 1 0.75
vt 1 0.765625
vt 1 0.78125
vt 1 0.796875
vt 1 0.8125
vt 1 0.828125
vt 1 0.84375
vt 1 0.859375
vt 1 0.875
vt 1 0.890625
vt 1 0.90625
vt 1 0.921875
vt 1 0.9375
vt 1 0.953125
vt 1 0.96875
vt 1 0.984375
vt 1 1
vt 0 0
vt 0 0.015625
vt 0 0.03125
vt 0 0.046875
vt 0 0.0625
vt 0 0.078125
vt 0 0.09375
vt 0 0.109375
vt 0 0.125
vt 0 0.140625
vt 0 0.15625
vt 0 0.171875
vt 0 0.1875
vt 0 0.203125
vt 0 0.21875
vt 0 0.234375
vt 0 0.25
vt 0 0.265625
vt 0 0.28125
vt 0 0.296875
vt 0 0.3125
vt 0 0.328125
vt 0 0.34375
vt 0 0.359375
vt 0 0.375
vt 0 0.390625
vt 0 0.40625
vt 0 0.421875
vt 0 0.4375
vt 0 0.453125
vt 0 0.46875
vt 0 0.484375
vt 0 0.5
vt 0 0.515625
vt 0 0.53125
vt 0 0.546875
vt 0 0.5625
vt 0 0.578125
vt 0 0.59375
vt 0 0.609375
vt 0 0.625
vt 0 0.640625
vt 0 0.65625
vt 0 0.671875
vt 0 0.6875
vt 0 0.703125
vt 0 0.71875
vt 0 0.734375
vt 0 0.75
vt 0 0.765625
vt 0 0.78125
vt 0 0.796875
vt 0 0.8125
vt 0 0.828125
vt 0 0.84375
vt 0 0.859375
vt 0 0.875
vt 0 0.890625
vt 0 0.90625
vt 0 0.921875
vt 0 0.9375
vt 0 0.953125
vt 0 0.96875
vt 0 0.984375
vt 0 1
vt 1 0
vt 1 0.015625
vt 1 0.03125
vt 1 0.046875
vt 1 0.0625
vt 1 0.078125
vt 1 0.09375
vt 1 0.109375
vt 1 0.125
vt 1 0.140625
vt 1 0.15625
vt 1 0.171875
vt 1 0.1875
vt 1 0.203125
vt 1 0.21875
vt 1 0.234375
vt 1 0.25
vt 1 0.265625
vt 1 0.28125
vt 1 0.296875
vt 1 0.3125
vt 1 0.328125
vt 1 0.34375
vt 1 0.359375
vt 1 0.375
vt 1 0.390625
vt 1 0.40625
vt 1 0.421875
vt 1 0.4375
vt 1 0.453125
vt 1 0.46875
vt 1 0.484375
vt 1 0.5
vt 1 0.515625
vt 1 0.53125
vt 1 0.546875
vt 1 0.5625
vt 1 0.578125
vt 1 0.59375
vt 1 0.609375
vt 1 0.625
vt 1 0.640625
vt 1 0.65625
vt 1 0.671875
vt 1 0.6875
vt 1 0.703125
vt 1 0.71875
vt 1 0.734375
vt 1 0.75
vt 1 0.765625
vt 1 0.78125
vt 1 0.796875
vt 1 0.8125
vt 1 0.828125
vt 1 0.84375
vt 1 0.859375
vt 1 0.875
vt 1 0.890625
vt 1 0.90625
vt 1 0.921875
vt 1 0.9375
vt 1 0.953125
vt 1 0.96875
vt 1 0.984375
vt 1 1
s 1
f 67/67 2/2 1/1
f 66/66 67/67 1/1
f 68/68 3/3 2/2
f 67/67 68/68 2/2
f 69/69 4/4 3/3
f 68/68 69/69 3/3
f 70/70 5/5 4/4
f 69/69 70/70 4/4
f 71/71 6/6 5/5
f 70/70 71/71 5/5
f 72/72 7/7 6/6
f 71/71 72/72 6/6
f 73/73 8/8 7/7
f 72/72 73/73 7/7
f 74/74 9/9 8/8
f 73/73 74/74 8/8
f 75/75 10/10 9/9
f 74/74 75/75 9/9
f 76/76 11/11 10/10
f 75/75 76/76 10/10
f 77/77 12/12 11/11
f 76/76 77/77 11/11
f 78/78 13/13 12/12
f 77/77 78/78 12/12
f 79/79 14/14 13/13
f 78/78 79/79 13/13
f 80/80 15/15 14/14
f 79/79 80/80 14/14
f 81/81 16/16 15/15
f 80/80 81/81 15/15
f 82/82 17/17 16/16
f 81/81 82/82 16/16
f 83/83 18/18 17/17
f 82/82 83/83 17/17
f 84/84 19/19 18/18
f 83/83 84/84 18/18
f 85/85 20/20 19/19
f 84/84 85/85 19/19
f 86/86 21/21 20/20
f 85/85 86/86 20/20
f 87/87 22/22 21/21
f 86/86 87/87 21/21
f 88/88 23/23 22/22
f 87/87 88/88 22/22
f 89/89 24/24 23/23
f 88/88 89/89 23/23
f 90/90 25/25 24/24
f 89/89 90/90 24/24
f 91/91 26/26 25/25
f 90/90 91/91 25/25
f 92/92 27/27 26/26
f 91/91 92/92 26/26
f 93/93 28/28 27/27
f 92/92 93/93 27/27
f 94/94 29/29 28/28
f 93/93 94/94 28/28
f 95/95 30/30 29/29
f 94/94 95/95 29/29
f 96/96 31/31 30/30
f 95/95 96/96 30/30
f 97/97 32/32 31/31
f 96/96 97/97 31/31
f 98/98 33/33 32/32
f 97/97 98/98 32/32
f 99/99 34/34 33/33
f 98/98 99/99 33/33
f 100/100 35/35 34/34
f 99/99 100/100 34/34
f 101/101 36/36 35/35
f 100/100 101/101 35/35
f 102/102 37/37 36/36
f 101/101 102/102 36/36
f 103/103 38/38 37/37
f 102/102 103/103 37/37
f 104/104 39/39 38/38
f 103/103 104/104 38/38
f 105/105 40/40 39/39
f 104/104 105/105 39/39
f 106/106 41/41 40/40
f 105/105 106/106 40/40
f 107/107 42/42 41/41
f 106/106 107/107 41/41
f 108/108 43/43 42/42
f 107/107 108/108 42/42
f 109/109 44/44 43/43
f 108/108 109/109 43/43
f 110/110 45/45 44/44
f 109/109 110/110 44/44
f 111/111 46/46 45/45
f 110/110 111/111 45/45
f 112/112 47/47 46/46
f 111/111 112/112 46/46
f 113/113 48/48 47/47
f 112/112 113/113 47/47
f 114/114 49/49 48/48
f 113/113 114/114 48/48
f 115/115 50/50 49/49
f 114/114 115/115 49/49
f 116/116 51/51 50/50
f 115/115 116/116 50/50
f 117/117 52/52 51/51
f 116/116 117/117 51/51
f 118/118 53/53 52/52
f 117/117 118/118 52/52
f 119/119 54/54 53/53
f 118/118 119/119 53/53
f 120/120 55/55 54/54
f 119/119 120/120 54/54
f 121/121 56/56 55/55
f 120/120 121/121 55/55
f 122/122 57/57 56/56
f 121/121 122/122 56/56
f 123/123 58/58 57/57
f 122/122 123/123 57/57
f 124/124 59/59 58/58
f 123/123 124/124 58/58
f 125/125 60/60 59/59
f 124/124 125/125 59/59
f 126/126 61/61 60/60
f 125/125 126/126 60/60
f 127/127 62/62 61/61
f 126/126 127/127 61/61
f 128/128 63/63 62/62
f 127/127 128/128 62/62
f 129/129 64/64 63/63
f 128/128 129/129 63/63
f 130/130 65/65 64/64
f 129/129 130/130 64/64
f 132/132 67/67 66/66
f 131/131 132/132 66/66
f 133/133 68/68 67/67
f 132/132 133/133 67/67
f 134/134 69/69 68/68
f 133/133 134/134 68/68
f 135/135 70/70 69/69
f 134/134 135/135 69/69
f 136/136 71/71 70/70
f 135/135 136/136 70/70
f 137/137 72/72 71/71
f 136/136 137/137 71/71
f 138/138 73/73 72/72
f 137/137 138/138 72/72
f 139/139 74/74 73/73
f 138/138 139/139 73/73
f 140/140 75/75 74/74
f 139/139 140/140 74/74
f 141/141 76/76 75/75
f 140/140 141/141 75/75
f 142/142 77/77 76/76
f 141/141 142/142 76/76
f 143/143 78/78 77/77
f 142/142 143/143 77/77
f 144/144 79/79 78/78
f 143/143 144/144 78/78
f 145/145 80/80 79/79
f 144/144 145/145 79/79
f 146/146 81/81 80/80
f 145/145 146/146 80/80
f 147/147 82/82 81/81
f 146/146 147/147 81/81
f 148/148 83/83 82/82
f 147/147 148/148 82/82
f 149/149 84/84 83/83
f 148/148 149/149 83/83
f 150/150 85/85 84/84
f 149/149 150/150 84/84
f 151/151 86/86 85/85
f 150/150 151/151 85/85
f 152/152 87/87 86/86
f 151/151 152/152 86/86
f 153/153 88/88 87/87
f 152/152 153/153 87/87
f 154/154 89/89 88/88
f 153/153 154/154 88/88
f 155/155 90/90 89/89
f 154/154 155/155 89/89
f 156/156 91/91 90/90
f 155/155 156/156 90/90
f 157/157 92/92 91/91
f 156/156 157/157 91/91
f 158/158 93/93 92/92
f 157/157 158/158 92/92
f 159/159 94/94 93/93
f 158/158 159/159 93/93
f 160/160 95/95 94/94
f 159/159 160/160 94/94
f 161/161 96/96 95/95
f 160/160 161/161 95/95
f 162/162 97/97 96/96
f 161/161 162/162 96/96
f 163/163 98/98 97/97
f 162/162 163/163 97/97
f 164/164 99/99 98/98
f 163/163 164/164 98/98
f 165/165 100/100 99/99
f 164/164 165/165 99/99
f 166/166 101/101 100/100
f 165/165 166/166 100/100
f 167/167 102/102 101/101
f 166/166 167/167 101/101
f 168/168 103/103 102/102
f 167/167 168/168 102/102
f 169/169 104/104 103/103
f 168/168 169/169 103/103
f 170/170 105/105 104/104
f 169/169 170/170 104/104
f 171/171 106/106 105/105
f 170/170 171/171 105/105
f 172/172 107/107 106/106
f 171/171 172/172 106/106
f 173/173 108/108 107/107
f 172/172 173/173 107/107
f 174/174 109/109 108/108
f 173/173 174/174 108/108
f 175/175 110/110 109/109
f 174/174 175/175 109/109
f 176/176 111/111 110/110
f 175/175 176/176 110/110
f 177/177 112/112 111/111
f 176/176 177/177 111/111
f 178/178 113/113 112/112
f 177/177 178/178 112/112
f 179/179 114/114 113/113
f 178/178 179/179 113/113
f 180/180 115/115 114/114
f 179/179 180/180 114/114
f 181/181 116/116 115/115
f 180/180 181/181 115/115
f 182/182 117/117 116/116
f 181/181 182/182 116/116
f 183/183 118/118 117/117
f 182/182 183/183 117/117
f 184/184 119/119 118/118
f 183/183 184/184 118/118
f 185/185 120/120 119/119
f 184/184 185/185 119/119
f 186/186 121/121 120/120
f 185/185 186/186 120/120
f 187/187 122/122 121/121
f 186/186 187/187 121/121
f 188/188 123/123 122/122
f 187/187 188/188 122/122
f 189/189 124/124 123/123
f 188/188 189/189 123/123
f 190/190 125/125 124/124
f 189/189 190/190 124/124
f 191/191 126/126 125/125
f 190/190 191/191 125/125
f 192/192 127/127 126/126
f 191/191 192/192 126/126
f 193/193 128/128 127/127
f 192/192 193/193 127/127
f 194/194 129/129 128/128
f 193/193 194/194 128/128
f 195/195 130/130 129/129
f 194/194 195/195 129/129
f 197/197 132/132 131/131
f 196/196 197/197 131/131
f 198/198 133/133 132/132
f 197/197 198/198 132/132
f 199/199 134/134 133/133
f 198/198 199/199 133/133
f 200/200 135/135 134/134
f 199/199 200/200 134/134
f 201/201 136/136 135/135
f 200/200 201/201 135/135
f 202/202 137/137 136/136
f 201/201 202/202 136/136
f 203/203 138/138 137/137
f 202/202 203/203 137/137
f 204/204 139/139 138/138
f 203/203 204/204 138/138
f 205/205 140/140 139/139
f 204/204 205/205 139/139
f 206/206 141/141 140/140
f 205/205 206/206 140/140
f 207/207 142/142 141/141
f 206/206 207/207 141/141
f 208/208 143/143 142/142
f 207/207 208/208 142/142
f 209/209 144/144 143/143
f 208/208 209/209 143/143
f 210/210 145/145 144/144
f 209/209 210/210 144/144
f 211/211 146/146 145/145
f 210/210 211/211 145/145
f 212/212 147/147 146/146
f 211/211 212/212 146/146
f 213/213 148/148 147/147
f 212/212 213/213 147/147
f 214/214 149/149 148/148
f 213/213 214/214 148/148
f 215/215 150/150 149/149
f 214/214 215/215 149/149
f 216/216 151/151 150/150
f 215/215 216/216 150/150
f 217/217 152/152 151/151
f 216/216 217/217 151/151
f 218/218 153/153 152/152
f 217/217 218/218 152/152
f 219/219 154/154 153/153
f 218/218 219/219 153/153
f 220/220 155/155 154/154
f 219/219 220/220 154/154
f 221/221 156/156 155/155
f 220/220 221/221 155/155
f 222/222 157/157 156/156
f 221/221 222/222 156/156
f 223/223 158/158 157/157
f 222/222 223/223 157/157
f 224/224 159/159 158/158
f 223/223 224/224 158/158
f 225/225 160/160 159/159
f 224/224 225/225 159/159
f 226/226 161/161 160/160
f 225/225 226/226 160/160
f 227/227 162/162 161/161
f 226/226 227/227 161/161
f 228/228 163/163 162/162
f 227/227 228/228 162/162
f 229/229 164/164 163/163
f 228/228 229/229 163/163
f 230/230 165/165 164/164
f 229/229 230/230 164/164
f 231/231 166/166 165/165
f 230/230 231/231 165/165
f 232/232 167/167 166/166
f 231/231 232/232 166/166
f 233/233 168/168 167/167
f 232/232 233/233 167/167
f 234/234 169/169 168/168
f 233/233 234/234 168/168
f 235/235 170/170 169/169
f 234/234 235/235 169/169
f 236/236 171/171 170/170
f 235/235 236/236 170/170
f 237/237 172/172 171/171
f 236/236 237/237 171/171
f 238/238 173/173 172/172
f 237/237 238/238 172/172
f 239/239 174/174 173/173
f 238/238 239/239 173/173
f 240/240 175/175 174/174
f 239/239 240/240 174/174
f 241/241 176/176 175/175
f 240/240 241/241 175/175
f 242/242 177/177 176/176
f 241/241 242/242 176/176
f 243/243 178/178 177/177
f 242/242 243/243 177/177
f 244/244 179/179 178/178
f 243/243 244/244 178/178
f 245/245 180/180 179/179
f 244/244 245/245 179/179
f 246/246 181/181 180/180
f 245/245 246/246 180/180
f 247/247 182/182 181/181
f 246/246 247/247 181/181
f 248/248 183/183 182/182
f 247/247 248/248 182/182
f 249/249 184/184 183/183
f 248/248 249/249 183/183
f 250/250 185/185 184/184
f 249/249 250/250 184/184
f 251/251 186/186 185/185
f 250/250 251/251 185/185
f 252/252 187/187 186/186
f 251/251 252/252 186/186
f 253/253 188/188 187/187
f 252/252 253/253 187/187
f 254/254 189/189 188/188
f 253/253 254/254 188/188
f 255/255 190/190 189/189
f 254/254 255/255 189/189
f 256/256 191/191 190/190
f 255/255 256/256 190/190
f 257/257 192/192 191/191
f 256/256 257/257 191/191
f 258/258 193/193 192/192
f 257/257 258/258 192/192
f 259/259 194/194 193/193
f 258/258 259/259 193/193
f 260/260 195/195 194/194
f 259/259 260/260 194/194
f 1/1 2/2 261/261
f 2/2 3/3 261/261
f 3/3 4/4 261/261
f 4/4 5/5 261/261
f 5/5 6/6 261/261
f 6/6 7/7 261/261
f 7/7 8/8 261/261
f 8/8 9/9 261/261
f 9/9 10/10 261/261
f 10/10 11/11 261/261
f 11/11 12/12 261/261
f 12/12 13/13 261/261
f 13/13 14/14 261/261
f 14/14 15/15 261/261
f 15/15 16/16 261/261
f 16/16 17/17 261/261
f 17/17 18/18 261/261
f 18/18 19/19 261/261
f 19/19 20/20 261/261
f 20/20 21/21 261/261
f 21/21 22/22 261/261
f 22/22 23/23 261/261
f 23/23 24/24 261/261
f 24/24 25/25 261/261
f 25/25 26/26 261/261
f 26/26 27/27 261/261
f 27/27 28/28 261/261
f 28/28 29/29 261/261
f 29/29 30/30 261/261
f 30/30 31/31 261/261
f 31/31 32/32 261/261
f 32/32 33/33 261/261
f 33/33 34/34 261/261
f 34/34 35/35 261/261
f 35/35 36/36 261/261
f 36/36 37/37 261/261
f 37/37 38/38 261/261
f 38/38 39/39 261/261
f 39/39 40/40 261/261
f 40/40 41/41 261/261
f 41/41 42/42 261/261
f 42/42 43/43 261/261
f 43/43 44/44 261/261
f 44/44 45/45 261/261
f 45/45 46/46 261/261
f 46/46 47/47 261/261
f 47/47 48/48 261/261
f 48/48 49/49 261/261
f 49/49 50/50 261/261
f 50/50 51/51 261/261
f 51/51 52/52 261/261
f 52/52 53/53 261/261
f 53/53 54/54 261/261
f 54/54 55/55 261/261
f 55/55 56/56 261/261
f 56/56 57/57 261/261
f 57/57 58/58 261/261
f 58/58 59/59 261/261
f 59/59 60/60 261/261
f 60/60 61/61 261/261
f 61/61 62/62 261/261
f 62/62 63/63 261/261
f 63/63 64/64 261/261
f 64/64 65/65 261/261
f 197/197 196/196 262/262
f 198/198 197/197 262/262
f 199/199 198/198 262/262
f 200/200 199/199 262/262
f 201/201 200/200 262/262
f 202/202 201/201 262/262
f 203/203 202/202 262/262
f 204/204 203/203 262/262
f 205/205 204/204 262/262
f 206/206 205/205 262/262
f 207/207 206/206 262/262
f 208/208 207/207 262/262
f 209/209 208/208 262/262
f 210/210 209/209 262/262
f 211/211 210/210 262/262
f 212/212 211/211 262/262
f 213/213 212/212 262/262
f 214/214 213/213 262/262
f 215/215 214/214 262/262
f 216/216 215/215 262/262
f 217/217 216/216 262/262
f 218/218 217/217 262/262
f 219/219 218/218 262/262
f 220/220 219/219 262/262
f 221/221 220/220 262/262
f 222/222 221/221 262/262
f 223/223 222/222 262/262
f 224/224 223/223 262/262
f 225/225 224/224 262/262
f 226/226 225/225 262/262
f 227/227 226/226 262/262
f 228/228 227/227 262/262
f 229/229 228/228 262/262
f 230/230 229/229 262/262
f 231/231 230/230 262/262
f 232/232 231/231 262/262
f 233/233 232/232 262/262
f 234/234 233/233 262/262
f 235/235 234/234 262/262
f 236/236 235/235 262/262
f 237/237 236/236 262/262
f 238/238 237/237 262/262
f 239/239 238/238 262/262
f 240/240 239/239 262/262
f 241/241 240/240 262/262
f 242/242 241/241 262/262
f 243/243 242/242 262/262
f 244/244 243/243 262/262
f 245/245 244/244 262/262
f 246/246 245/245 262/262
f 247/247 246/246 262/262
f 248/248 247/247 262/262
f 249/249 248/248 262/262
f 250/250 249/249 262/262
f 251/251 250/250 262/262
f 252/252 251/251 262/262
f 253/253 252/252 262/262
f 254/254 253/253 262/262
f 255/255 254/254 262/262
f 256/256 255/255 262/262
f 257/257 256/256 262/262
f 258/258 257/257 262/262
f 259/259 258/258 262/262
f 260/260 259/259 262/262
f 329/329 264/264 263/263
f 328/328 329/329 263/263
f 330/330 265/265 264/264
f 329/329 330/330 264/264
f 331/331 266/266 265/265
f 330/330 331/331 265/265
f 332/332 267/267 266/266
f 331/331 332/332 266/266
f 333/333 268/268 267/267
f 332/332 333/333 267/267
f 334/334 269/269 268/268
f 333/333 334/334 268/268
f 335/335 270/270 269/269
f 334/334 335/335 269/269
f 336/336 271/271 270/270
f 335/335 336/336 270/270
f 337/337 272/272 271/271
f 336/336 337/337 271/271
f 338/338 273/273 272/272
f 337/337 338/338 272/272
f 339/339 274/274 273/273
f 338/338 339/339 273/273
f 340/340 275/275 274/274
f 339/339 340/340 274/274
f 341/341 276/276 275/275
f 340/340 341/341 275/275
f 342/342 277/277 276/276
f 341/341 342/342 276/276
f 343/343 278/278 277/277
f 342/342 343/343 277/277
f 344/344 279/279 278/278
f 343/343 344/344 278/278
f 345/345 280/280 279/279
f 344/344 345/345 279/279
f 346/346 281/281 280/280
f 345/345 346/346 280/280
f 347/347 282/282 281/281
f 346/346 347/347 281/281
f 348/348 283/283 282/282
f 347/347 348/348 282/282
f 349/349 284/284 283/283
f 348/348 349/349 283/283
f 350/350 285/285 284/284
f 349/349 350/350 284/284
f 351/351 286/286 285/285
f 350/350 351/351 285/285
f 352/352 287/287 286/286
f 351/351 352/352 286/286
f 353/353 288/288 287/287
f 352/352 353/353 287/287
f 354/354 289/289 288/288
f 353/353 354/354 288/288
f 355/355 290/290 289/289
f 354/354 355/355 289/289
f 356/356 291/291 290/290
f 355/355 356/356 290/290
f 357/357 292/292 291/291
f 356/356 357/357 291/291
f 358/358 293/293 292/292
f 357/357 358/358 292/292
f 359/359 294/294 293/293
f 358/358 359/359 293/293
f 360/360 295/295 294/294
f 359/359 360/360 294/294
f 361/361 296/296 295/295
f 360/360 361/361 295/295
f 362/362 297/297 296/296
f 361/361 362/362 296/296
f 363/363 298/298 297/297
f 362/362 363/363 297/297
f 364/364 299/299 298/298
f 363/363 364/364 298/298
f 365/365 300/300 299/299
f 364/364 365/365 299/299
f 366/366 301/301 300/300
f 365/365 366/366 300/300
f 367/367 302/302 301/301
f 366/366 367/367 301/301
f 368/368 303/303 302/302
f 367/367 368/368 302/302
f 369/369 304/304 303/303
f 368/368 369/369 303/303
f 370/370 305/305 304/304
f 369/369 370/370 304/304
f 371/371 306/306 305/305
f 370/370 371/371 305/305
f 372/372 307/307 306/306
f 371/371 372/372 306/306
f 373/373 308/308 307/307
f 372/372 373/373 307/307
f 374/374 309/309 308/308
f 373/373 374/374 308/308
f 375/375 310/310 309/309
f 374/374 375/375 309/309
f 376/376 311/311 310/310
f 375/375 376/376 310/310
f 377/377 312/312 311/311
f 376/376 377/377 311/311
f 378/378 313/313 312/312
f 377/377 378/378 312/312
f 379/379 314/314 313/313
f 378/378 379/379 313/313
f 380/380 315/315 314/314
f 379/379 380/380 314/314
f 381/381 316/316 315/315
f 380/380 381/381 315/315
f 382/382 317/317 316/316
f 381/381 382/382 316/316
f 383/383 318/318 317/317
f 382/382 383/383 317/317
f 384/384 319/319 318/318
f 383/383 384/384 318/318
f 385/385 320/320 319/319
f 384/384 385/385 319/319
f 386/386 321/321 320/320
f 385/385 386/386 320/320
f 387/387 322/322 321/321
f 386/386 387/387 321/321
f 388/388 323/323 322/322
f 387/387 388/388 322/322
f 389/389 324/324 323/323
f 388/388 389/389 323/323
f 390/390 325/325 324/324
f 389/389 390/390 324/324
f 391/391 326/326 325/325
f 390/390 391/391 325/325
f 392/392 327/327 326/326
f 391/391 392/392 326/326
f 459/459 394/394 393/393
f 458/458 459/459 393/393
f 460/460 395/395 394/394
f 459/459 460/460 394/394
f 461/461 396/396 395/395
f 460/460 461/461 395/395
f 462/462 397/397 396/396
f 461/461 462/462 396/396
f 463/463 398/398 397/397
f 462/462 463/463 397/397
f 464/464 399/399 398/398
f 463/463 464/464 398/398
f 465/465 400/400 399/399
f 464/464 465/465 399/399
f 466/466 401/401 400/400
f 465/465 466/466 400/400
f 467/467 402/402 401/401
f 466/466 467/467 401/401
f 468/468 403/403 402/402
f 467/467 468/468 402/402
f 469/469 404/404 403/403
f 468/468 469/469 403/403
f 470/470 405/405 404/404
f 469/469 470/470 404/404
f 471/471 406/406 405/405
f 470/470 471/471 405/405
f 472/472 407/407 406/406
f 471/471 472/472 406/406
f 473/473 408/408 407/407
f 472/472 473/473 407/407
f 474/474 409/409 408/408
f 473/473 474/474 408/408
f 475/475 410/410 409/409
f 474/474 475/475 409/409
f 476/476 411/411 410/410
f 475/475 476/476 410/410
f 477/477 412/412 411/411
f 476/476 477/477 411/411
f 478/478 413/413 412/412
f 477/477 478/478 412/412
f 479/479 414/414 413/413
f 478/478 479/479 413/413
f 480/480 415/415 414/414
f 479/479 480/480 414/414
f 481/481 416/416 415/415
f 480/480 481/481 415/415
f 482/482 417/417 416/416
f 481/481 482/482 416/416
f 483/483 418/418 417/417
f 482/482 483/483 417/417
f 484/484 419/419 418/418
f 483/483 484/484 418/418
f 485/485 420/420 419/419
f 484/484 485/485 419/419
f 486/486 421/421 420/420
f 485/485 486/486 420/420
f 487/487 422/422 421/421
f 486/486 487/487 421/421
f 488/488 423/423 422/422
f 487/487 488/488 422/422
f 489/489 424/424 423/423
f 488/488 489/489 423/423
f 490/490 425/425 424/424
f 489/489 490/490 424/424
f 491/491 426/426 425/425
f 490/490 491/491 425/425
f 492/492 427/427 426/426
f 491/491 492/492 426/426
f 493/493 428/428 427/427
f 492/492 493/493 427/427
f 494/494 429/429 428/428
f 493/493 494/494 428/428
f 495/495 430/430 429/429
f 494/494 495/495 429/429
f 496/496 431/431 430/430
f 495/495 496/496 430/430
f 497/497 432/432 431/431
f 496/496 497/497 431/431
f 498/498 433/433 432/432
f 497/497 498/498 432/432
f 499/499 434/434 433/433
f 498/498 499/499 433/433
f 500/500 435/435 434/434
f 499/499 500/500 434/434
f 501/501 436/436 435/435
f 500/500 501/501 435/435
f 502/502 437/437 436/436
f 501/501 502/502 436/436
f 503/503 438/438 437/437
f 502/502 503/503 437/437
f 504/504 439/439 438/438
f 503/503 504/504 438/438
f 505/505 440/440 439/439
f 504/504 505/505 439/439
f 506/506 441/441 440/440
f 505/505 506/506 440/440
f 507/507 442/442 441/441
f 506/506 507/507 441/441
f 508/508 443/443 442/442
f 507/507 508/508 442/442
f 509/509 444/444 443/443
f 508/508 509/509 443/443
f 510/510 445/445 444/444
f 509/509 510/510 444/444
f 511/511 446/446 445/445
f 510/510 511/511 445/445
f 512/512 447/447 446/446
f 511/511 512/512 446/446
f 513/513 448/448 447/447
f 512/512 513/513 447/447
f 514/514 449/449 448/448
f 513/513 514/514 448/448
f 515/515 450/450 449/449
f 514/514 515/515 449/449
f 516/516 451/451 450/450
f 515/515 516/516 450/450
f 517/517 452/452 451/451
f 516/516 517/517 451/451
f 518/518 453/453 452/452
f 517/517 518/518 452/452
f 519/519 454/454 453/453
f 518/518 519/519 453/453
f 520/520 455/455 454/454
f 519/519 520/520 454/454
f 521/521 456/456 455/455
f 520/520 521/521 455/455
f 522/522 457/457 456/456
f 521/521 522/522 456/456
f 589/589 524/524 523/523
f 588/588 589/589 523/523
f 590/590 525/525 524/524
f 589/589 590/590 524/524
f 591/591 526/526 525/525
f 590/590 591/591 525/525
f 592/592 527/527 526/526
f 591/591 592/592 526/526
f 593/593 528/528 527/527
f 592/592 593/593 527/527
f 594/594 529/529 528/528
f 593/593 594/594 528/528
f 595/595 530/530 529/529
f 594/594 595/595 529/529
f 596/596 531/531 530/530
f 595/595 596/596 530/530
f 597/597 532/532 531/531
f 596/596 597/597 531/531
f 598/598 533/533 532/532
f 597/597 598/598 532/532
f 599/599 534/534 533/533
f 598/598 599/599 533/533
f 600/600 535/535 534/534
f 599/599 600/600 534/534
f 601/601 536/536 535/535
f 600/600 601/601 535/535
f 602/602 537/537 536/536
f 601/601 602/602 536/536
f 603/603 538/538 537/537
f 602/602 603/603 537/537
f 604/604 539/539 538/538
f 603/603 604/604 538/538
f 605/605 540/540 539/539
f 604/604 605/605 539/539
f 606/606 541/541 540/540
f 605/605 606/606 540/540
f 607/607 542/542 541/541
f 606/606 607/607 541/541
f 608/608 543/543 542/542
f 607/607 608/608 542/542
f 609/609 544/544 543/543
f 608/608 609/609 543/543
f 610/610 545/545 544/544
f 609/609 610/610 544/544
f 611/611 546/546 545/545
f 610/610 611/611 545/545
f 612/612 547/547 546/546
f 611/611 612/612 546/546
f 613/613 548/548 547/547
f 612/612 613/613 547/547
f 614/614 549/549 548/548
f 613/613 614/614 548/548
f 615/615 550/550 549/549
f 614/614 615/615 549/549
f 616/616 551/551 550/550
f 615/615 616/616 550/550
f 617/617 552/552 551/551
f 616/616 617/617 551/551
f 618/618 553/553 552/552
f 617/617 618/618 552/552
f 619/619 554/554 553/553
f 618/618 619/619 553/553
f 620/620 555/555 554/554
f 619/619 620/620 554/554
f 621/621 556/556 555/555
f 620/620 621/621 555/555
f 622/622 557/557 556/556
f 621/621 622/622 556/556
f 623/623 558/558 557/557
f 622/622 623/623 557/557
f 624/624 559/559 558/558
f 623/623 624/624 558/558
f 625/625 560/560 559/559
f 624/624 625/625 559/559
f 626/626 561/561 560/560
f 625/625 626/626 560/560
f 627/627 562/562 561/561
f 626/626 627/627 561/561
f 628/628 563/563 562/562
f 627/627 628/628 562/562
f 629/629 564/564 563/563
f 628/628 629/629 563/563
f 630/630 565/565 564/564
f 629/629 630/630 564/564
f 631/631 566/566 565/565
f 630/630 631/631 565/565
f 632/632 567/567 566/566
f 631/631 632/632 566/566
f 633/633 568/568 567/567
f 632/632 633/633 567/567
f 634/634 569/569 568/568
f 633/633 634/634 568/568
f 635/635 570/570 569/569
f 634/634 635/635 569/569
f 636/636 571/571 570/570
f 635/635 636/636 570/570
f 637/637 572/572 571/571
f 636/636 637/637 571/571
f 638/638 573/573 572/572
f 637/637 638/638 572/572
f 639/639 574/574 573/573
f 638/638 639/639 573/573
f 640/640 575/575 574/574
f 639/639 640/640 574/574
f 641/641 576/576 575/575
f 640/640 641/641 575/575
f 642/642 577/577 576/576
f 641/641 642/642 576/576
f 643/643 578/578 577/577
f 642/642 643/643 577/577
f 644/644 579/579 578/578
f 643/643 644/644 578/578
f 645/645 580/580 579/579
f 644/644 645/645 579/579
f 646/646 581/581 580/580
f 645/645 646/646 580/580
f 647/647 582/582 581/581
f 646/646 647/647 581/581
f 648/648 583/583 582/582
f 647/647 648/648 582/582
f 649/649 584/584 583/583
f 648/648 649/649 583/583
f 650/650 585/585 584/584
f 649/649 650/650 584/584
f 651/651 586/586 585/585
f 650/650 651/651 585/585
f 652/652 587/587 586/586
f 651/651 652/652 586/586
f 719/719 654/654 653/653
f 718/718 719/719 653/653
f 720/720 655/655 654/654
f 719/719 720/720 654/654
f 721/721 656/656 655/655
f 720/720 721/721 655/655
f 722/722 657/657 656/656
f 721/721 722/722 656/656
f 723/723 658/658 657/657
f 722/722 723/723 657/657
f 724/724 659/659 658/658
f 723/723 724/724 658/658
f 725/725 660/660 659/659
f 724/724 725/725 659/659
f 726/726 661/661 660/660
f 725/725 726/726 660/660
f 727/727 662/662 661/661
f 726/726 727/727 661/661
f 728/728 663/663 662/662
f 727/727 728/728 662/662
f 729/729 664/664 663/663
f 728/728 729/729 663/663
f 730/730 665/665 664/664
f 729/729 730/730 664/664
f 731/731 666/666 665/665
f 730/730 731/731 665/665
f 732/732 667/667 666/666
f 731/731 732/732 666/666
f 733/733 668/668 667/667
f 732/732 733/733 667/667
f 734/734 669/669 668/668
f 733/733 734/734 668/668
f 735/735 670/670 669/669
f 734/734 735/735 669/669
f 736/736 671/671 670/670
f 735/735 736/736 670/670
f 737/737 672/672 671/671
f 736/736 737/737 671/671
f 738/738 673/673 672/672
f 737/737 738/738 672/672
f 739/739 674/674 673/673
f 738/738 739/739 673/673
f 740/740 675/675 674/674
f 739/739 740/740 674/674
f 741/741 676/676 675/675
f 740/740 741/741 675/675
f 742/742 677/677 676/676
f 741/741 742/742 676/676
f 743/743 678/678 677/677
f 742/742 743/743 677/677
f 744/744 679/679 678/678
f 743/743 744/744 678/678
f 745/745 680/680 679/679
f 744/744 745/745 679/679
f 746/746 681/681 680/680
f 745/745 746/746 680/680
f 747/747 682/682 681/681
f 746/746 747/747 681/681
f 748/748 683/683 682/682
f 747/747 748/748 682/682
f 749/749 684/684 683/683
f 748/748 749/749 683/683
f 750/750 685/685 684/684
f 749/749 750/750 684/684
f 751/751 686/686 685/685
f 750/750 751/751 685/685
f 752/752 687/687 686/686
f 751/751 752/752 686/686
f 753/753 688/688 687/687
f 752/752 753/753 687/687
f 754/754 689/689 688/688
f 753/753 754/754 688/688
f 755/755 690/690 689/689
f 754/754 755/755 689/689
f 756/756 691/691 690/690
f 755/755 756/756 690/690
f 757/757 692/692 691/691
f 756/756 757/757 691/691
f 758/758 693/693 692/692
f 757/757 758/758 692/692
f 759/759 694/694 693/693
f 758/758 759/759 693/693
f 760/760 695/695 694/694
f 759/759 760/760 694/694
f 761/761 696/696 695/695
f 760/760 761/761 695/695
f 762/762 697/697 696/696
f 761/761 762/762 696/696
f 763/763 698/698 697/697
f 762/762 763/763 697/697
f 764/764 699/699 698/698
f 763/763 764/764 698/698
f 765/765 700/700 699/699
f 764/764 765/765 699/699
f 766/766 701/701 700/700
f 765/765 766/766 700/700
f 767/767 702/702 701/701
f 766/766 767/767 701/701
f 768/768 703/703 702/702
f 767/767 768/768 702/702
f 769/769 704/704 703/703
f 768/768 769/769 703/703
f 770/770 705/705 704/704
f 769/769 770/770 704/704
f 771/771 706/706 705/705
f 770/770 771/771 705/705
f 772/772 707/707 706/706
f 771/771 772/772 706/706
f 773/773 708/708 707/707
f 772/772 773/773 707/707
f 774/774 709/709 708/708
f 773/773 774/774 708/708
f 775/775 710/710 709/709
f 774/774 775/775 709/709
f 776/776 711/711 710/710
f 775/775 776/776 710/710
f 777/777 712/712 711/711
f 776/776 777/777 711/711
f 778/778 713/713 712/712
f 777/777 778/778 712/712
f 779/779 714/714 713/713
f 778/778 779/779 713/713
f 780/780 715/715 714/714
f 779/779 780/780 714/714
f 781/781 716/716 715/715
f 780/780 781/781 715/715
f 782/782 717/717 716/716
f 781/781 782/782 716/716
